<svg version="1.1" id="Layer_1" xmlns="http://www.w3.org/2000/svg" x="0" y="0" viewBox="0 0 1000 800" xml:space="preserve"><style>.st0{fill:none;stroke:#fff;stroke-width:.75;stroke-miterlimit:10}</style><path class="st0" d="M501.7 706.7c53.4-14.3 107.4 1.1 154.2 22.8 46.8 21.7 90.4 49.8 141.1 63.1 50.7 13.3 112.7 8.7 154.7-28.3 44.3-39 53.7-101.9 46.5-155.7-7.1-53.8-27.2-104.5-29-159.2-2.2-67.8 24-136.8 23.6-204.8C992.5 160.8 949 82.5 879 39.1 809-4.2 714.1-11.5 630.2 20c-57.6 21.6-109.6 60-168.8 74.8-84.5 21.1-169.7-9.2-254.8 6.6-101 18.7-190.2 108.4-204.8 206-14.7 97.7 46.6 193.7 140.8 220.6 67.8 19.4 151.6 7.8 202.7 52.9 26 22.9 35.7 44.8 57.9 71.2 13.9 16.6 28.2 33.4 47.5 44 19.3 10.6 28.1 16.7 51 10.6z"/><path class="st0" d="M506.2 697c-22.2 5.9-30.8 0-49.5-10.3S424.1 660 410.6 644c-20.2-24.1-29.8-44.3-51.8-65.1-1.4-1.3-2.8-2.6-4.3-4-49.5-43.8-130.7-32.7-196.5-51.6-18.9-5.4-36.4-13.7-52.1-24.2-60.7-40.6-95.9-114.8-84.5-190C35.6 214.5 122 127.7 219.9 109.5c82.5-15.3 165 14 246.9-6.4 57.3-14.3 107.7-51.5 163.5-72.3 61.5-23 129-24.5 187.5-5.7 19 6.1 37 14.3 53.6 24.5 67.8 42 109.9 118 110.4 199.1.4 65.9-24.9 132.8-22.7 198.5 1.7 53 21.2 102.2 28.2 154.3 6.9 52.1-2 113.1-45 151-40.7 35.8-100.6 40.4-149.7 27.5-49.1-12.8-91.4-40.1-136.7-61-45.6-20.9-97.9-35.8-149.7-22z"/><path class="st0" d="M510.8 687.4c-21.6 5.7-29.9-.1-48-10-18.2-10-31.6-25.9-44.6-41.4-19.6-23.4-28.9-43-50.2-63.2l-4.2-3.9c-48-42.5-126.6-31.9-190.3-50.3-18.3-5.3-35.2-13.3-50.5-23.6-59-39.4-93-111.3-81.9-184.2 13.8-91.5 97.4-175.6 192-193.1 79.8-14.8 159.7 13.5 238.9-6.3 55.5-13.8 104.2-49.7 158.2-69.9C689.7 19.3 755 18 811.7 36.2 830 42.1 847.5 50 863.5 60c65.6 40.8 106.4 114.3 106.9 192.9.4 63.8-24 128.6-21.9 192.2 1.7 51.3 20.6 99 27.3 149.4 6.7 50.5-1.9 109.5-43.4 146.3-39.3 34.7-97.3 39.1-144.8 26.8-47.5-12.4-88.4-38.6-132.3-58.9-43.8-20.3-94.5-34.6-144.5-21.3z"/><path class="st0" d="M515.3 677.7c-20.9 5.5-29-.1-46.5-9.8-17.6-9.7-30.6-25.1-43.2-40.2-19-22.6-28-41.6-48.6-61.2-1.3-1.2-2.7-2.5-4.1-3.7-46.4-41.2-122.5-31.1-184.2-49.1-17.7-5.1-34.1-12.9-48.9-22.9C82.9 452.7 49.9 383 60.9 312.4 74.2 224 155 142.8 246.5 125.8c77.2-14.3 154.3 13 230.9-6.1 53.6-13.3 100.8-48 152.9-67.4C687.9 31 751 29.7 805.7 47.4c17.7 5.7 34.6 13.4 50.1 23.1C919.2 109.9 958.6 181 959.2 257c.5 61.7-23.1 124.4-21 185.9 1.7 49.6 20 95.7 26.5 144.5 6.6 48.8-1.8 106-41.9 141.6-38 33.6-93.9 37.9-139.9 26-45.9-11.9-85.4-37.2-127.9-56.7-42.3-19.5-91.3-33.4-139.7-20.6z"/><path class="st0" d="M519.8 668.1c-20.2 5.3-28-.2-45-9.5-17-9.4-29.6-24.3-41.8-38.9-18.3-21.9-27.1-40.3-47-59.3l-3.9-3.6c-44.9-39.9-118.4-30.4-178-47.8-17.1-5-33-12.6-47.3-22.2-55-37-86.7-104.4-76.2-172.8 13.1-85.3 90.9-163.7 179.3-180.2 74.5-13.9 149 12.4 222.9-5.9 51.8-12.9 97.3-46.3 147.6-65 55.6-20.5 116.5-21.6 169.4-4.5 17.1 5.5 33.4 13 48.4 22.4 61.2 38.2 99.3 106.9 99.9 180.3.5 59.6-22.1 120.1-20.1 179.6 1.7 47.9 19.3 92.5 25.7 139.6 6.4 47.2-1.6 102.4-40.3 136.8-36.6 32.4-90.6 36.7-134.9 25.2-44.3-11.4-82.5-35.8-123.5-54.6-41.1-18.6-88.4-32-135.2-19.6z"/><path class="st0" d="M524.4 658.4c-19.5 5.1-27.1-.2-43.5-9.2-16.4-9.1-28.6-23.5-40.4-37.6-17.7-21.2-26.2-39-45.5-57.3-1.2-1.2-2.5-2.3-3.8-3.5-43.4-38.6-114.3-29.6-171.8-46.5-16.5-4.9-31.8-12.2-45.6-21.5-53.1-35.9-83.7-100.9-73.5-167C113 233.4 188 157.9 273.1 142c71.8-13.4 143.7 11.9 214.9-5.8 49.9-12.4 93.8-44.5 142.3-62.5C684 54 742.7 53 793.7 69.7c16.5 5.4 32.2 12.6 46.6 21.6 59 36.9 95.8 103.2 96.4 174 .5 57.5-21.2 115.9-19.2 173.3 1.6 46.3 18.7 89.3 24.8 134.7 6.2 45.6-1.5 98.8-38.8 132.1-35.3 31.3-87.3 35.4-130 24.5-42.7-10.9-79.5-34.4-119-52.5-39.5-18-85.1-30.9-130.1-19z"/><path class="st0" d="M528.9 648.7c-18.8 4.9-26.2-.2-42-8.9-15.9-8.8-27.6-22.6-39-36.3-17.1-20.4-25.3-37.6-43.9-55.3-1.2-1.1-2.4-2.3-3.7-3.4-41.8-37.3-110.2-28.8-165.7-45.2-15.9-4.7-30.7-11.8-44-20.8C139.5 444 110 381.2 120 317.4c12.4-79.2 84.5-151.9 166.5-167.2 69.1-12.9 138.3 11.4 206.9-5.6 48.1-11.9 90.3-42.9 137-60.1 51.6-19 108.2-19.7 157.3-3.7 15.9 5.2 31 12.2 44.9 20.9 56.8 35.6 92.2 99.5 92.9 167.8.6 55.4-20.3 111.7-18.3 167 1.6 44.6 18 86 24 129.9 6 43.9-1.3 95.4-37.2 127.4-33.9 30.2-84 34.2-125.1 23.7-41.1-10.5-76.6-33-114.6-50.3-38.1-17.5-82-29.8-125.4-18.5z"/><path class="st0" d="M533.4 639.1c-18.1 4.7-25.2-.3-40.4-8.7-15.3-8.5-26.6-21.8-37.6-35-16.5-19.7-24.4-36.3-42.3-53.4-1.1-1.1-2.3-2.2-3.5-3.3-40.3-36-106.1-28-159.5-44-15.3-4.6-29.5-11.5-42.4-20.2-49.4-33.5-77.7-94.1-68-155.6 12-76.1 81.3-146 160.1-160.8 66.5-12.4 133 10.9 198.9-5.4 46.2-11.4 86.8-41.2 131.7-57.6C680.1 77 734.5 76.4 781.7 92c15.3 5 29.8 11.8 43.2 20.2 54.6 34.4 88.7 95.8 89.4 161.5.6 53.3-19.4 107.5-17.4 160.7 1.6 42.9 17.4 82.8 23.1 125 5.8 42.3-1.1 91.8-35.6 122.7-32.5 29.1-80.7 33-120.2 22.9-39.5-10-73.6-31.5-110.2-48.2-36.6-16.7-78.8-28.5-120.6-17.7z"/><path class="st0" d="M537.9 629.4c-17.4 4.5-24.3-.3-38.9-8.4-14.7-8.1-25.6-21-36.2-33.7-15.8-19-23.5-35-40.7-51.4-1.1-1-2.2-2.1-3.4-3.2-38.7-34.7-102-27.2-153.3-42.7-14.7-4.4-28.4-11.1-40.7-19.5-47.5-32.3-74.7-90.6-65.2-149.9 11.6-73 78.1-140.1 153.7-154.3 63.8-12 127.6 10.4 190.9-5.2 44.3-10.9 83.3-39.4 126.4-55.2 47.7-17.4 99.9-17.8 145.2-2.8 14.7 4.9 28.6 11.3 41.4 19.4 52.5 33.1 85.1 92.1 85.9 155.2.6 51.2-18.5 103.2-16.5 154.3 1.6 41.2 16.8 79.5 22.3 120.1 5.6 40.7-1 88.3-34.1 118-31.1 28-77.3 31.7-115.2 22.2-37.9-9.5-70.6-30.1-105.8-46.1-35.1-15.8-75.7-27.1-115.8-16.8z"/><path class="st0" d="M542.5 619.8c-16.7 4.3-23.4-.4-37.4-8.1-14.1-7.8-24.6-20.2-34.8-32.4-15.2-18.2-22.6-33.6-39.1-49.5-1.1-1-2.1-2-3.3-3-37.2-33.4-97.9-26.4-147.2-41.4-14.1-4.3-27.3-10.7-39.1-18.8-45.6-31.2-71.7-87.2-62.5-144.2 11.3-70 74.8-134.2 147.3-147.8 61.1-11.5 122.3 9.9 182.9-5.1 42.5-10.5 79.8-37.7 121.1-52.7 45.8-16.6 95.8-16.9 139.2-2.4 14 4.7 27.4 10.9 39.7 18.7 50.3 31.8 81.6 88.5 82.4 149 .7 49.1-17.5 99-15.6 148 1.5 39.5 16.1 76.3 21.5 115.2 5.4 39-.8 84.7-32.5 113.3-29.8 26.9-74 30.5-110.3 21.4-36.3-9-67.7-28.7-101.4-43.9-33.7-15.4-72.5-26.1-110.9-16.3z"/><path class="st0" d="M547 610.1c-16 4.1-22.4-.4-35.9-7.9-13.6-7.5-23.6-19.4-33.4-31.2-14.6-17.5-21.7-32.3-37.5-47.5-1-1-2-1.9-3.1-2.9-35.7-32.1-93.8-25.6-141-40.2-13.5-4.2-26.1-10.3-37.5-18.1-43.7-30-68.7-83.7-59.8-138.5 10.9-66.9 71.6-128.3 140.9-141.4 58.4-11 116.9 9.3 174.9-4.9 40.6-10 76.3-36 115.8-50.2 43.8-15.8 91.7-15.9 133.1-2 13.4 4.5 26.2 10.5 37.9 18 48.1 30.5 78.1 84.8 78.9 142.7.7 47-16.6 94.8-14.7 141.7 1.5 37.8 15.5 73.1 20.6 110.3 5.2 37.4-.7 81.2-31 108.6C827 672.4 784.7 676 750 667.4c-34.7-8.6-64.7-27.3-96.9-41.8-32.2-14.6-69.3-24.8-106.1-15.5z"/><path class="st0" d="M551.5 600.5c-15.3 3.9-21.5-.4-34.4-7.6-13-7.2-22.6-18.6-32-29.9-14-16.8-20.8-31-35.9-45.5-1-.9-2-1.9-3-2.8-34.1-30.8-89.7-24.8-134.8-38.9-12.9-4-25-10-35.9-17.4-41.9-28.8-65.7-80.3-57-132.7C229 261.9 286.9 203.3 353 190.8c55.8-10.5 111.6 8.8 166.9-4.7 38.8-9.5 72.8-34.3 110.5-47.8 41.8-15 87.5-15 127.1-1.6 12.8 4.3 25 10.1 36.2 17.2 45.9 29.2 74.5 81.1 75.4 136.4.7 45-15.7 90.6-13.9 135.4 1.5 36.2 14.8 69.8 19.8 105.4 5 35.8-.5 77.6-29.4 103.9-27.1 24.6-67.4 28-100.4 19.9-33.1-8.1-61.7-25.9-92.5-39.7-30.6-13.8-66.1-23.6-101.2-14.7z"/><path class="st0" d="M556.1 590.8c-14.6 3.7-20.6-.5-32.9-7.3-12.4-6.9-21.6-17.8-30.6-28.6-13.3-16-19.9-29.6-34.3-43.6-.9-.9-1.9-1.8-2.9-2.7-32.6-29.6-85.6-24.1-128.7-37.6-12.4-3.9-23.8-9.6-34.2-16.8-40-27.7-62.7-76.8-54.3-127 10.1-60.8 65.2-116.5 128.1-128.4 53.1-10.1 106.3 8.3 159-4.6 36.9-9 69.4-32.6 105.2-45.3 39.9-14.2 83.4-14 121-1.1 12.2 4.2 23.8 9.7 34.5 16.5 43.7 27.9 71 77.4 71.9 130.1.8 42.9-14.8 86.4-13 129.1 1.5 34.5 14.2 66.6 18.9 100.5 4.8 34.1-.4 74.1-27.9 99.2-25.7 23.5-64 26.8-95.5 19.1-31.5-7.6-58.8-24.5-88.1-37.5-29-13.1-62.8-22.3-96.2-14z"/><path class="st0" d="M560.6 581.2c-14 3.4-19.7-.5-31.4-7-11.8-6.6-20.6-17-29.2-27.3-12.7-15.3-18.9-28.3-32.7-41.6-.9-.9-1.8-1.7-2.7-2.6-31-28.3-81.5-23.3-122.5-36.3-11.8-3.7-22.7-9.2-32.6-16.1-38.1-26.5-59.7-73.4-51.6-121.3 9.8-57.7 61.9-110.6 121.7-122 50.4-9.6 100.9 7.8 151-4.4 35.1-8.5 65.9-30.9 99.9-42.9 37.9-13.4 79.2-13 115-.7 11.6 4 22.6 9.3 32.7 15.8 41.5 26.7 67.5 73.7 68.4 123.9.8 40.8-13.9 82.1-12.1 122.8 1.4 32.8 13.5 63.3 18.1 95.6 4.6 32.5-.2 70.5-26.3 94.5-24.4 22.4-60.7 25.6-90.6 18.4-29.9-7.1-55.8-23-83.7-35.4-27.6-12.6-59.6-21.3-91.4-13.4z"/><path class="st0" d="M565.1 571.5c-13.3 3.2-18.7-.5-29.8-6.8-11.3-6.3-19.6-16.2-27.8-26-12.1-14.6-18-27-31.1-39.7-.8-.8-1.7-1.6-2.6-2.4-29.5-27-77.4-22.5-116.3-35.1-11.2-3.6-21.6-8.8-31-15.4-36.2-25.3-56.7-69.9-48.8-115.6 9.4-54.6 58.7-104.7 115.3-115.5 47.7-9.1 95.6 7.3 143-4.2 33.2-8.1 62.4-29.1 94.7-40.4 36-12.6 75.1-12.1 108.9-.3 11 3.8 21.4 8.8 31 15 39.3 25.4 63.9 70 64.9 117.6.8 38.7-13 77.9-11.2 116.5 1.4 31.1 12.9 60.1 17.3 90.7 4.5 30.8-.1 67-24.7 89.7-23 21.2-57.4 24.3-85.7 17.6-28.3-6.6-52.9-21.6-79.3-33.3-26.3-11.6-56.7-19.8-86.8-12.4z"/><path class="st0" d="M569.6 561.9c-12.6 3-17.8-.6-28.3-6.5-10.7-6-18.6-15.4-26.3-24.7-11.4-13.8-17.1-25.6-29.5-37.7-.8-.8-1.6-1.6-2.5-2.3-28-25.7-73.3-21.7-110.2-33.8-10.6-3.5-20.4-8.5-29.3-14.7-34.3-24.2-53.7-66.5-46.1-109.9 9-51.5 55.5-98.8 108.9-109 45.1-8.6 90.2 6.8 135-4.1 31.4-7.6 58.9-27.4 89.4-38 34-11.8 70.9-11.1 102.9.1 10.4 3.6 20.2 8.4 29.3 14.3 37.1 24.1 60.4 66.3 61.4 111.3.9 36.6-12 73.7-10.3 110.2 1.4 29.4 12.3 56.8 16.4 85.8 4.3 29.2.1 63.4-23.2 85-21.7 20.1-54.1 23.1-80.7 16.9-26.7-6.2-49.9-20.2-74.9-31.1-24.8-11-53.5-18.7-82-11.8z"/><path class="st0" d="M574.2 552.2c-11.9 2.8-16.9-.6-26.8-6.2-10.1-5.7-17.7-14.6-24.9-23.4-10.8-13.1-16.2-24.3-27.9-35.7-.7-.7-1.5-1.5-2.3-2.2-26.4-24.4-69.1-20.9-104-32.5-10-3.3-19.3-8.1-27.7-14-32.5-23-50.7-63-43.4-104.1 8.6-48.5 52.3-92.9 102.5-102.6 42.4-8.2 84.9 6.2 127-3.9 29.5-7.1 55.4-25.7 84.1-35.5 32-11 66.8-10.2 96.9.5 9.7 3.5 19 8 27.5 13.6 34.9 22.8 56.9 62.6 58 105.1.9 34.5-11.1 69.5-9.4 103.9 1.4 27.7 11.6 53.6 15.6 80.9 4.1 27.6.2 59.9-21.6 80.3-20.3 19-50.8 21.9-75.8 16.1-25.1-5.7-46.9-18.8-70.4-29-23.7-10.5-50.6-17.7-77.4-11.3z"/><path class="st0" d="M578.7 542.5c-11.2 2.6-15.9-.7-25.3-5.9-9.5-5.4-16.7-13.8-23.5-22.2-10.2-12.3-15.3-23-26.3-33.8-.7-.7-1.4-1.4-2.2-2.1-24.9-23.1-65-20.1-97.8-31.3-9.4-3.2-18.2-7.7-26.1-13.4-30.6-21.8-47.7-59.6-40.6-98.4 8.2-45.4 49.1-87 96.1-96.1 39.7-7.7 79.6 5.7 119-3.7 27.6-6.6 51.9-24 78.8-33.1 30.1-10.2 62.6-9.2 90.8.9 9.1 3.3 17.8 7.6 25.8 12.8 32.7 21.5 53.3 58.9 54.5 98.8.9 32.4-10.2 65.2-8.5 97.5 1.4 26.1 11 50.4 14.7 76 3.9 25.9.4 56.3-20.1 75.6-18.9 17.9-47.4 20.6-70.9 15.3-23.5-5.2-44-17.4-66-26.9-22-9.2-47.3-15.8-72.4-10z"/><path class="st0" d="M583.2 532.9c-10.5 2.4-15-.7-23.8-5.7-9-5.1-15.7-13-22.1-20.9-9.6-11.6-14.4-21.6-24.7-31.8-.7-.7-1.3-1.3-2.1-2-23.3-21.8-60.9-19.3-91.7-30-8.8-3.1-17-7.4-24.5-12.7-28.7-20.6-44.7-56.1-37.9-92.7 7.8-42.3 45.8-81.1 89.8-89.6 37.1-7.2 74.2 5.2 111-3.6 25.8-6.1 48.4-22.3 73.5-30.6 28.1-9.4 58.5-8.3 84.8 1.4 8.5 3.1 16.6 7.2 24.1 12.1 30.5 20.3 49.8 55.2 51 92.5 1 30.3-9.3 61-7.6 91.2 1.3 24.4 10.3 47.1 13.9 71.1 3.7 24.3.6 52.8-18.5 70.9-17.6 16.7-44.1 19.4-65.9 14.6-21.9-4.8-41-15.9-61.6-24.7-20.6-8.7-44.2-14.9-67.7-9.5z"/><path class="st0" d="M587.7 523.2c-9.8 2.2-14.1-.7-22.3-5.4-8.4-4.8-14.7-12.2-20.7-19.6-8.9-10.9-13.5-20.3-23.1-29.9-.6-.6-1.3-1.2-1.9-1.9-21.8-20.5-56.8-18.5-85.5-28.7-8.2-2.9-15.9-7-22.8-12-26.8-19.5-41.7-52.7-35.2-87 7.5-39.2 42.6-75.2 83.4-83.2 34.4-6.7 68.9 4.7 103-3.4 23.9-5.7 45-20.5 68.2-28.1 26.2-8.6 54.3-7.3 78.7 1.8 7.9 2.9 15.4 6.7 22.3 11.4 28.3 19 46.3 51.5 47.5 86.2 1 28.2-8.4 56.8-6.7 84.9 1.3 22.7 9.7 43.9 13.1 66.2 3.5 22.7.7 49.2-17 66.2-16.2 15.6-40.8 18.1-61 13.8-20.3-4.3-38.1-14.5-57.2-22.6-19-7.9-41-13.6-62.8-8.7z"/><path class="st0" d="M592.3 513.6c-9.1 2-13.1-.8-20.7-5.1-7.8-4.5-13.7-11.4-19.3-18.3-8.3-10.1-12.6-19-21.5-27.9-.6-.6-1.2-1.2-1.8-1.7-20.3-19.2-52.7-17.8-79.3-27.5-7.6-2.8-14.7-6.6-21.2-11.3-25-18.3-38.7-49.2-32.4-81.3 7.1-36.2 39.4-69.3 77-76.7 31.7-6.3 63.5 4.2 95-3.2 22.1-5.2 41.5-18.8 62.9-25.7 24.2-7.8 50.2-6.4 72.7 2.2 7.3 2.8 14.2 6.3 20.6 10.6 26.1 17.7 42.7 47.9 44 80 1 26.1-7.4 52.6-5.8 78.6 1.3 21 9.1 40.6 12.2 61.3 3.3 21 .9 45.7-15.4 61.5-14.9 14.5-37.4 16.9-56.1 13.1-18.7-3.8-35.1-13.1-52.8-20.5-17.8-7.4-38-12.5-58.1-8.1z"/><path class="st0" d="M596.8 503.9c-8.4 1.8-12.2-.8-19.2-4.8-7.3-4.2-12.7-10.6-17.9-17-7.7-9.4-11.7-17.6-19.9-25.9l-1.6-1.6c-18.7-17.9-48.6-17-73.2-26.2-7-2.6-13.6-6.2-19.6-10.6-23.1-17.1-35.7-45.8-29.7-75.6 6.7-33.1 36.2-63.4 70.6-70.2 29-5.8 58.2 3.6 87-3.1 20.2-4.7 38-17.1 57.6-23.2 22.2-7 46.1-5.4 66.6 2.6 6.7 2.6 13 5.9 18.9 9.9 24 16.4 39.2 44.2 40.5 73.7 1 24-6.5 48.3-5 72.3 1.3 19.3 8.4 37.4 11.4 56.4 3.1 19.4 1 42.1-13.8 56.8-13.5 13.3-34.1 15.7-51.2 12.3-17.1-3.4-32.1-11.7-48.4-18.3-16.1-6.8-34.6-11.4-53.1-7.5z"/><path class="st0" d="M601.3 494.3c-7.8 1.6-11.3-.8-17.7-4.6-6.7-3.9-11.7-9.8-16.5-15.7-7.1-8.7-10.8-16.3-18.3-24l-1.5-1.5c-17.2-16.6-44.5-16.2-67-24.9-6.4-2.5-12.5-5.9-17.9-10-21.2-16-32.7-42.3-27-69.8 6.3-30 33-57.5 64.2-63.8 26.4-5.3 52.9 3.1 79.1-2.9 18.4-4.2 34.5-15.4 52.3-20.8 20.3-6.2 41.9-4.4 60.6 3 6 2.4 11.8 5.5 17.1 9.2 21.8 15.1 35.7 40.5 37 67.4 1.1 21.9-5.6 44.1-4.1 66 1.2 17.6 7.7 34.2 10.6 51.5 2.9 17.8 1.2 38.6-12.3 52.1-12.2 12.2-30.8 14.4-46.2 11.5-15.5-2.9-29.2-10.2-43.9-16.2-14.8-5.8-31.7-10-48.5-6.5z"/><path class="st0" d="M605.9 484.6c-7.1 1.4-10.4-.9-16.2-4.3-6.1-3.6-10.7-9-15.1-14.4-6.4-7.9-9.9-14.9-16.7-22-.4-.5-.9-.9-1.4-1.4-15.6-15.3-40.4-15.4-60.8-23.6-5.9-2.4-11.3-5.5-16.3-9.3-19.3-14.8-29.7-38.9-24.2-64.1 5.8-26.9 29.7-51.6 57.8-57.3 23.7-4.8 47.5 2.6 71.1-2.7 16.5-3.7 31-13.6 47-18.3 18.3-5.4 37.8-3.5 54.5 3.5 5.4 2.3 10.6 5.1 15.4 8.4 19.6 13.8 32.1 36.8 33.5 61.2 1.1 19.8-4.7 39.9-3.2 59.7 1.2 16 7.1 30.9 9.7 46.7 2.7 16.1 1.3 35-10.7 47.4-10.8 11.1-27.5 13.2-41.3 10.8-13.9-2.4-26.2-8.8-39.5-14.1-13.3-5.5-28.5-9.1-43.6-6.2z"/><path class="st0" d="M610.4 475c-6.4 1.2-9.4-.9-14.7-4-5.5-3.3-9.7-8.2-13.7-13.2-5.8-7.2-9-13.6-15.2-20.1-.4-.4-.8-.8-1.2-1.3-14.1-14-36.3-14.6-54.7-22.4-5.3-2.2-10.2-5.1-14.7-8.6-17.5-13.6-26.7-35.4-21.5-58.4 5.4-23.8 26.5-45.7 51.4-50.8 21-4.4 42.2 2.1 63.1-2.6 14.6-3.3 27.6-11.9 41.7-15.9 16.4-4.6 33.6-2.5 48.5 3.9 4.8 2.1 9.4 4.7 13.7 7.7 17.4 12.6 28.6 33.1 30 54.9 1.1 17.7-3.8 35.7-2.3 53.4 1.2 14.3 6.5 27.7 8.9 41.8 2.5 14.5 1.5 31.4-9.2 42.6-9.5 9.9-24.2 12-36.4 10-12.3-2-23.3-7.4-35.1-11.9-11.7-4.5-25.1-7.6-38.6-5.1z"/><path class="st0" d="M614.9 465.3c-5.7 1-8.5-1-13.2-3.7-5-3-8.7-7.4-12.3-11.9-5.2-6.5-8.1-12.3-13.6-18.1-.4-.4-.7-.8-1.1-1.2-12.6-12.7-32.2-13.8-48.5-21.1-4.7-2.1-9.1-4.8-13.1-7.9-15.6-12.5-23.7-32-18.8-52.7 5-20.8 23.3-39.8 45-44.4 18.3-3.9 36.8 1.6 55.1-2.4 12.8-2.8 24.1-10.2 36.4-13.4 14.4-3.8 29.5-1.6 42.5 4.3 4.2 1.9 8.2 4.2 11.9 7 15.2 11.3 25 29.4 26.5 48.6 1.2 15.6-2.8 31.4-1.4 47.1 1.2 12.6 5.8 24.4 8 36.9 2.3 12.9 1.6 27.9-7.6 37.9-8.1 8.8-20.8 10.7-31.4 9.3-10.7-1.5-20.3-6-30.7-9.8-10.1-3.8-21.9-6.5-33.7-4.5z"/><path class="st0" d="M619.4 455.7c-5 .8-7.6-1-11.6-3.5-4.4-2.7-7.7-6.6-10.9-10.6-4.6-5.7-7.2-10.9-12-16.1-.3-.3-.6-.7-1-1-11-11.4-28.1-13-42.3-19.8-4.1-1.9-7.9-4.4-11.4-7.3-13.7-11.3-20.8-28.5-16-47 4.5-17.7 20.1-33.9 38.6-37.9 15.7-3.4 31.5 1.1 47.1-2.2 10.9-2.3 20.6-8.5 31.1-11 12.5-2.9 25.3-.6 36.4 4.7 3.6 1.7 7 3.8 10.2 6.3 13 10 21.5 25.7 23 42.3 1.2 13.5-1.9 27.2-.5 40.8 1.1 10.9 5.2 21.2 7.2 32 2.1 11.2 1.8 24.3-6.1 33.2-6.7 7.7-17.5 9.5-26.5 8.5-9.1-1-17.3-4.6-26.3-7.7-8.7-3.1-18.8-5.3-29-3.7z"/><path class="st0" d="M624 446c-4.3.5-6.6-1-10.1-3.2-3.8-2.4-6.7-5.8-9.4-9.3-3.9-5-6.3-9.6-10.4-14.2-.3-.3-.5-.6-.8-.9-9.5-10.2-24-12.2-36.2-18.6-3.5-1.8-6.8-4-9.8-6.6-11.8-10.1-17.8-25-13.3-41.2 4.1-14.6 16.9-28 32.2-31.4 13-2.9 26.1.5 39.1-2 9.1-1.8 17.1-6.7 25.8-8.5 10.5-2.1 21.2.3 30.4 5.1 3 1.6 5.8 3.4 8.4 5.5 10.8 8.7 18 22 19.5 36.1 1.2 11.4-1 23 .4 34.4 1.1 9.2 4.5 18 6.4 27.1 1.9 9.6 1.9 20.7-4.5 28.5-5.4 6.5-14.2 8.3-21.6 7.7-7.5-.5-14.4-3.2-21.8-5.5-7.4-2.4-15.9-4.1-24.3-3z"/><path class="st0" d="M628.5 436.3c-3.6.3-5.7-1.1-8.6-2.9-3.2-2.1-5.7-5-8-8-3.3-4.2-5.4-8.3-8.8-12.2-.2-.3-.5-.5-.7-.8-7.9-8.9-19.9-11.4-30-17.3-2.9-1.7-5.6-3.6-8.2-5.9-10-8.9-14.9-21.6-10.6-35.5 3.6-11.5 13.6-22.1 25.8-25 10.3-2.5 20.8 0 31.1-1.9 7.2-1.3 13.7-5 20.5-6 8.6-1.3 17 1.3 24.3 5.5 2.4 1.4 4.6 3 6.7 4.8 8.6 7.4 14.4 18.3 16 29.8 1.3 9.3-.1 18.8 1.3 28.1 1.1 7.5 3.9 14.7 5.5 22.2 1.7 8 2.1 17.2-3 23.8-4.1 5.4-10.9 7-16.7 7-5.9-.1-11.4-1.7-17.4-3.4-5.7-1.6-12.4-2.9-19.2-2.3z"/><path class="st0" d="M633 426.7c-3 .1-4.8-1.1-7.1-2.6-2.7-1.8-4.7-4.2-6.6-6.7-2.7-3.5-4.5-6.9-7.2-10.3-.2-.2-.4-.5-.6-.7-6.4-7.6-15.8-10.7-23.8-16-2.3-1.5-4.5-3.3-6.5-5.2-8.1-7.8-12-18.1-7.8-29.8 3-8.5 10.4-16.2 19.4-18.5 7.6-2 15.5-.5 23.1-1.7 5.4-.9 10.2-3.2 15.2-3.6 6.7-.5 12.9 2.2 18.3 6 1.7 1.2 3.4 2.6 5 4.1 6.4 6.2 10.9 14.6 12.5 23.5 1.3 7.2.8 14.5 2.2 21.8 1.1 5.8 3.3 11.5 4.7 17.3 1.6 6.3 2.2 13.6-1.4 19.1-2.7 4.2-7.6 5.8-11.7 6.2-4.3.4-8.4-.3-13-1.3-4.5-1-9.6-1.8-14.7-1.6z"/></svg>