<svg version="1.1" id="Layer_1" xmlns="http://www.w3.org/2000/svg" x="0" y="0" viewBox="0 0 1920 1080" xml:space="preserve"><style>.st1{fill:none;stroke:#ff555c;stroke-width:1;stroke-miterlimit:10}</style><path class="st1" d="M544.6-121c46.09 56.55 115.82 81.93 182.64 94.95 66.82 13.02 135.24 16.59 199.84 41.61 64.59 25.01 127.28 77.84 143.62 149.88 17.26 76.07-21.42 150.57-70.62 202.57S890.07 458.8 845.89 515.94C791.1 586.8 765.73 680.91 712.74 753.4c-65.24 89.26-172.31 139.5-280.72 131.72-108.41-7.78-215.62-73.4-281.09-172.04-44.9-67.64-70.84-148.97-122.74-210.57-74.08-87.93-188.63-121.41-267.59-204.17-93.62-98.12-119.66-263.11-59.8-378.9 59.86-115.79 199.8-171.09 321.35-127.01 87.54 31.75 168.26 108.93 257.75 100.2 45.54-4.44 72.87-20.25 117.03-31.39 27.66-6.98 55.99-14.01 84.83-10.39 28.85 3.61 43.04 3.86 62.84 28.15z"/><path class="st1" d="M541.97-107.17c-19.22-23.53-33.02-23.79-60.99-27.28-28-3.49-55.48 3.32-82.33 10.11-40.29 10.17-66.17 24.35-105.84 29.62-2.52.33-5.09.63-7.73.89-86.85 8.54-165.21-66.12-250.17-96.79-24.37-8.8-49.49-13.49-74.54-14.41-96.22-3.52-191.21 48.69-237.19 137.94-57.94 112.17-32.7 271.97 57.96 367.03 76.47 80.18 187.4 112.66 259.17 197.81 50.29 59.66 75.46 138.39 118.98 203.85 48 72.13 119.04 125.96 196.22 151.19 24.98 8.17 50.61 13.34 76.31 15.16 105.07 7.46 208.84-41.25 272.13-127.71 51.4-70.22 76.08-161.37 129.21-230.02 42.85-55.36 101.8-92.96 149.51-143.35 47.73-50.4 85.28-122.58 68.64-196.33-15.78-69.78-76.42-120.98-138.94-145.26C849.84 1.03 783.61-2.49 718.89-15.16c-64.7-12.65-132.24-37.25-176.92-92.01z"/><path class="st1" d="M539.35-93.33c-18.65-22.77-32.05-23.02-59.16-26.4-27.15-3.37-53.8 3.24-79.83 9.82-39.05 9.87-64.17 23.63-102.62 28.75-2.44.33-4.93.62-7.49.87-84.2 8.34-160.21-63.78-242.59-93.38-23.63-8.49-47.99-13.01-72.27-13.87-93.31-3.32-185.38 47.3-229.84 133.94-56.01 108.56-31.58 263.17 56.12 355.17 73.97 77.6 181.28 109.09 250.75 191.45 48.67 57.7 73.07 133.84 115.21 197.13 46.54 69.74 115.35 121.73 190.08 146.07 24.19 7.88 49 12.86 73.88 14.61 101.73 7.13 202.21-40.03 263.54-123.7 49.81-67.96 73.79-156.14 125.28-222.57 41.52-53.58 98.6-89.99 144.82-138.76 46.26-48.8 82.68-118.66 66.66-190.08-15.22-67.53-73.82-117.09-134.25-140.63C837.21 11.52 773.16 8.04 710.55-4.26c-62.59-12.3-127.93-36.12-171.2-89.07z"/><path class="st1" d="M536.73-79.5c-18.08-22.01-31.08-22.26-57.33-25.52-26.3-3.26-52.11 3.15-77.33 9.53-37.81 9.57-62.17 22.9-99.4 27.89-2.36.32-4.78.6-7.25.85-81.55 8.15-155.2-61.45-235.01-89.97-22.89-8.18-46.48-12.52-70-13.34-90.4-3.12-179.54 45.91-222.5 129.94-54.09 104.95-30.46 254.36 54.28 343.3 71.48 75.03 175.17 105.51 242.33 185.09 47.06 55.75 70.69 129.29 111.44 190.41 45.07 67.35 111.65 117.51 183.93 140.95 23.4 7.59 47.4 12.38 71.46 14.05 98.39 6.81 195.57-38.82 254.95-119.7 48.23-65.69 71.51-150.91 121.35-215.13 40.19-51.79 95.41-87.01 140.14-134.17 44.79-47.19 80.07-114.75 64.69-183.84-14.66-65.27-71.22-113.2-129.56-136C824.57 22.01 762.7 18.57 702.21 6.63 641.74-5.3 578.58-28.34 536.73-79.5z"/><path class="st1" d="M534.1-65.67c-17.51-21.25-30.12-21.5-55.49-24.64-25.45-3.14-50.43 3.06-74.83 9.25-36.57 9.26-60.17 22.17-96.18 27.02-2.29.31-4.63.59-7.02.83-78.9 7.96-150.2-59.12-227.43-86.55C51-147.63 28.17-151.8 5.42-152.57c-87.48-2.92-173.53 44.63-215.15 125.93-51.95 101.48-29.34 245.55 52.44 331.44C-88.3 377.25 11.76 406.73 76.62 483.53c45.44 53.81 68.3 124.74 107.68 183.68 43.61 64.96 107.95 113.28 177.79 135.83 22.61 7.3 45.79 11.9 69.04 13.49 95.06 6.48 188.93-37.6 246.36-115.69 46.64-63.42 69.23-145.68 117.42-207.69 38.87-50.01 92.22-84.04 135.46-129.58 43.32-45.59 77.47-110.83 62.71-177.6-14.09-63.02-68.61-109.32-124.88-131.38C811.94 32.5 752.25 29.1 693.87 17.52 635.51 5.96 574.55-16.31 534.1-65.67z"/><path class="st1" d="M531.48-51.84c-16.93-20.49-29.15-20.74-53.66-23.76-24.6-3.02-48.74 2.97-72.33 8.96-35.33 8.96-58.16 21.44-92.95 26.16-2.21.3-4.47.57-6.78.81-76.26 7.77-145.19-56.78-219.84-83.14-21.41-7.56-43.47-11.56-65.47-12.27-84.57-2.72-167.65 43.27-207.8 121.93-49.97 97.91-28.22 236.74 50.61 319.58C-70.25 376.3 26.19 404.78 88.75 478.8c43.83 51.86 65.92 120.19 103.91 176.96 42.15 62.57 104.26 109.05 171.64 130.7 21.82 7.01 44.19 11.42 66.62 12.93 91.72 6.16 182.29-36.39 237.76-111.68 45.06-61.15 66.94-140.45 113.49-200.25 37.54-48.23 89.02-81.07 130.77-124.99 41.85-43.99 74.87-106.91 60.73-171.35-13.53-60.76-66.01-105.43-120.19-126.75C799.3 42.99 741.8 39.63 685.53 28.42c-56.25-11.2-115.02-32.69-154.05-80.26z"/><path class="st1" d="M528.86-38c-16.32-19.76-28.18-19.98-51.82-22.88-23.75-2.9-47.06 2.88-69.83 8.67-34.09 8.66-56.16 20.72-89.73 25.3-2.13.29-4.32.55-6.55.78-73.61 7.57-140.19-54.45-212.26-79.73-20.67-7.26-41.97-11.08-63.2-11.74C-46.19-120.12-126.3-75.7-164.98.32c-47.99 94.33-27.11 227.94 48.77 307.71 64 67.29 156.82 94.78 217.07 166.01 42.21 49.91 63.43 115.72 100.15 170.24 40.58 60.27 100.56 104.82 165.5 125.58 21.02 6.72 42.58 10.94 64.19 12.37 88.38 5.83 175.65-35.17 229.17-107.67 43.47-58.88 64.66-135.22 109.56-192.81 36.21-46.44 85.83-78.09 126.09-120.4 40.38-42.39 72.39-103.01 58.76-165.11-12.86-58.54-63.42-101.55-115.51-122.13-52.1-20.63-107.42-23.94-161.57-34.8C623.06 28.48 566.57 7.67 528.86-38z"/><path class="st1" d="M526.24-24.17c-15.74-19.01-27.22-19.22-49.99-22-22.9-2.78-45.37 2.8-67.33 8.39-32.85 8.35-54.16 19.99-86.51 24.43-2.06.28-4.16.54-6.31.76-70.96 7.38-135.19-52.12-204.68-76.32-19.93-6.94-40.46-10.59-60.93-11.21-78.74-2.32-155.89 40.54-193.1 113.92-46.01 90.75-25.99 219.13 46.93 295.85 61.51 64.72 150.7 91.2 208.65 159.64 40.6 47.96 61.03 111.18 96.38 163.52 39.1 57.89 96.86 100.59 159.35 120.46 20.23 6.43 40.97 10.46 61.77 11.81 85.04 5.51 169.02-33.96 220.58-103.66 41.88-56.61 62.38-129.99 105.63-185.37 34.88-44.66 82.64-75.12 121.41-115.82 38.91-40.78 69.81-99.1 56.78-158.87-12.27-56.28-60.81-97.65-110.82-117.5C774.03 63.97 720.9 60.7 668.85 50.2c-52.02-10.46-106.3-30.51-142.61-74.37z"/><path class="st1" d="M523.61-10.34c-15.16-18.26-26.25-18.46-48.16-21.12-22.05-2.66-43.69 2.71-64.83 8.1C379.01-15.31 358.46-4.1 327.33.21c-1.98.28-4 .52-6.08.74-68.31 7.19-130.18-49.78-197.1-72.91-19.19-6.63-38.96-10.11-58.66-10.67-75.81-2.13-150 39.17-185.73 109.91-44.04 87.17-24.87 210.32 45.09 283.98 59.01 62.14 144.59 87.62 200.23 153.28 38.99 46.01 58.63 106.64 92.61 156.79 37.62 55.52 93.16 96.37 153.21 115.34 19.44 6.14 39.37 9.98 59.35 11.25 81.71 5.18 162.38-32.74 211.99-99.66 40.3-54.35 60.09-124.76 101.7-177.93 33.55-42.88 79.44-72.15 116.73-111.23 37.44-39.18 67.23-95.19 54.8-152.62-11.69-54.03-58.2-93.76-106.14-112.87-47.93-19.17-98.88-22.39-148.82-32.53-49.9-10.08-101.98-29.37-136.9-71.42z"/><path class="st1" d="M520.99 3.5C506.41-14 495.7-14.2 474.67-16.75c-21.2-2.54-42 2.62-62.32 7.81-30.37 7.75-50.16 18.53-80.06 22.7-1.9.27-3.85.51-5.84.72-65.67 7-125.18-47.45-189.52-69.5-18.45-6.33-37.45-9.63-56.39-10.14C7.61-67.07-63.61-27.34-97.88 40.76c-42.06 83.59-23.75 201.51 43.25 272.12C1.9 372.44 83.85 396.92 137.19 459.8c37.37 44.06 56.23 102.11 88.85 150.07 36.14 53.14 89.47 92.14 147.06 110.21 18.65 5.85 37.76 9.5 56.92 10.69 78.37 4.86 155.74-31.53 203.4-95.65 38.71-52.08 57.81-119.53 97.77-170.49 32.22-41.09 76.25-69.18 112.04-106.64 35.97-37.58 64.64-91.27 52.82-146.38-11.1-51.77-55.6-89.88-101.45-108.24-45.84-18.43-94.6-21.61-142.43-31.38-47.79-9.73-97.66-28.26-131.18-68.49z"/><path class="st1" d="M518.37 17.33C504.37.58 494.05.39 473.88-2.04c-20.35-2.42-40.31 2.53-59.82 7.52-29.13 7.44-48.16 17.81-76.84 21.84-1.83.26-3.69.49-5.61.7-63.02 6.8-120.18-45.11-181.93-66.09-17.71-6.02-35.95-9.15-54.13-9.61C25.55-49.4-42.71-11.23-75.5 54.23c-40.09 80.01-22.63 192.7 41.41 260.25 54.02 56.98 132.36 80.46 183.39 140.56 35.76 42.11 53.83 97.57 85.08 143.35 34.66 50.77 85.77 87.91 140.92 105.09 17.85 5.56 36.15 9.02 54.5 10.13 75.03 4.54 149.1-30.31 194.81-91.64 37.12-49.81 55.53-114.3 93.85-163.05 30.9-39.31 73.06-66.2 107.36-102.05 34.5-35.98 62.06-87.36 50.85-140.14-10.52-49.52-53-85.99-96.77-103.62-43.77-17.71-90.35-20.85-136.07-30.26-45.67-9.33-93.34-27.1-125.46-65.52z"/><path class="st1" d="M515.74 31.16c-13.42-15.99-23.35-16.18-42.65-18.49-19.5-2.3-38.63 2.44-57.32 7.24-27.89 7.14-46.16 17.08-73.62 20.98-1.75.25-3.54.48-5.37.68-60.37 6.61-115.17-42.78-174.35-62.68-16.97-5.71-34.44-8.67-51.86-9.08C43.48-31.71-21.81 4.9-53.14 67.72c-38.11 76.43-21.51 183.9 39.58 248.39 51.53 54.41 126.24 76.89 174.97 134.2 34.14 40.16 51.43 93.04 81.32 136.63 33.18 48.39 82.07 83.68 134.77 99.97 17.06 5.27 34.55 8.54 52.08 9.57 71.69 4.21 142.47-29.1 186.22-87.63 35.54-47.54 53.25-109.07 89.92-155.61 29.57-37.53 69.87-63.23 102.68-97.46 33.03-34.37 59.48-83.44 48.87-133.89-9.94-47.27-50.4-82.1-92.08-98.99-41.68-16.98-86.08-20.07-129.69-29.13-43.57-8.99-89.03-26-119.76-62.61z"/><path class="st1" d="M513.12 44.99c-12.85-15.24-22.39-15.42-40.82-17.61-18.65-2.18-36.94 2.35-54.82 6.95-26.65 6.84-44.16 16.35-70.4 20.11-1.67.24-3.39.46-5.14.66-57.72 6.42-110.17-40.45-166.77-59.27-16.23-5.4-32.94-8.18-49.59-8.54C61.41-14.02-.91 21.01-30.77 81.2c-36.14 72.85-20.39 175.09 37.74 236.52 49.04 51.83 120.13 73.31 166.55 127.84 32.53 38.21 49.03 88.5 77.55 129.9 31.7 46.02 78.37 79.45 128.63 94.85 16.27 4.98 32.94 8.06 49.65 9.01 68.36 3.89 135.83-27.88 177.63-83.62 33.95-45.27 50.96-103.84 85.99-148.17 28.24-35.75 66.67-60.26 97.99-92.87 31.56-32.77 56.9-79.53 46.89-127.65-9.36-45.02-47.79-78.21-87.39-94.36-39.6-16.25-81.82-19.3-123.31-27.99-41.45-8.62-84.7-24.87-114.03-59.67z"/><path class="st1" d="M510.5 58.83c-12.27-14.49-21.42-14.66-38.99-16.73-17.8-2.06-35.26 2.27-52.32 6.66-25.42 6.53-42.16 15.62-67.18 19.25-1.6.23-3.23.45-4.9.63-55.07 6.23-105.16-38.11-159.19-55.86-15.49-5.09-31.43-7.7-47.32-8.01C79.35 3.66 19.99 37.13-8.4 94.68c-34.17 69.27-19.27 166.28 35.9 224.66 46.54 49.25 114.01 69.73 158.13 121.48 30.91 36.26 46.63 83.96 73.79 123.18 30.22 43.64 74.68 75.23 122.48 89.72 15.48 4.69 31.34 7.58 47.23 8.45 65.02 3.56 129.19-26.67 169.04-79.61 32.37-43.01 48.68-98.61 82.06-140.73 26.91-33.96 63.48-57.29 93.31-88.28 30.1-31.17 54.32-75.61 44.91-121.41-8.78-42.76-45.19-74.33-82.71-89.74-37.52-15.52-77.55-18.52-116.93-26.86-39.33-8.24-80.38-23.73-108.31-56.71z"/><path class="st1" d="M507.88 72.66c-11.69-13.73-20.46-13.89-37.15-15.85-16.95-1.95-33.57 2.18-49.82 6.38-24.18 6.23-40.16 14.9-63.95 18.38-1.52.23-3.08.43-4.66.61-52.43 6.03-100.16-35.78-151.61-52.45-14.75-4.78-29.93-7.22-45.05-7.47-58.35-.92-114.74 30.98-141.66 85.9-32.2 65.69-18.15 157.47 34.06 212.79 44.05 46.68 107.9 66.15 149.71 115.12 29.3 34.31 44.22 79.43 70.02 116.46 28.75 41.27 70.98 71 116.34 84.6 14.68 4.4 29.73 7.1 44.81 7.9 61.68 3.24 122.55-25.45 160.45-75.61 30.78-40.74 46.4-93.38 78.13-133.28 25.58-32.18 60.29-54.31 88.63-83.7 28.63-29.56 51.73-71.69 42.94-115.16-8.2-40.51-42.59-70.44-78.02-85.11-35.44-14.78-73.29-17.75-110.56-25.72-37.24-7.9-76.08-22.62-102.61-53.79z"/><path class="st1" d="M505.25 86.49c-11.11-12.98-19.49-13.13-35.32-14.97-16.1-1.83-31.89 2.09-47.32 6.09-22.94 5.93-38.16 14.17-60.73 17.52-1.45.22-2.92.42-4.43.59-49.78 5.84-95.16-33.45-144.03-49.03-14.01-4.47-28.42-6.74-42.79-6.94-55.43-.72-108.86 29.62-134.31 81.89-30.23 62.1-17.03 148.66 32.22 200.93 41.56 44.1 101.78 62.57 141.29 108.76 27.68 32.36 41.82 74.89 66.25 109.74 27.27 38.89 67.28 66.77 110.19 79.48 13.89 4.11 28.12 6.62 42.39 7.34 58.34 2.91 115.92-24.24 151.86-71.6 29.19-38.47 44.11-88.15 74.2-125.84 24.26-30.4 57.09-51.34 83.94-79.11 27.16-27.96 49.15-67.78 40.96-108.92-7.62-38.26-39.99-66.55-73.34-80.48-33.35-14.05-69.02-16.98-104.18-24.59-35.07-7.54-71.71-21.5-96.85-50.86z"/><path class="st1" d="M502.63 100.32c-10.53-12.22-18.52-12.37-33.48-14.09-15.25-1.71-30.2 2-44.82 5.8-21.7 5.62-36.16 13.44-57.51 16.66-1.37.21-2.77.4-4.19.57-47.13 5.65-90.15-31.11-136.44-45.62-13.27-4.16-26.92-6.25-40.52-6.41-52.52-.52-102.99 28.25-126.96 77.89C30.45 193.63 42.8 274.98 89.1 324.19c39.06 41.52 95.67 59 132.87 102.4 26.07 30.41 39.43 70.36 62.49 103.01 25.79 36.52 63.59 62.54 104.05 74.35 13.1 3.82 26.52 6.14 39.96 6.78 55.01 2.59 109.28-23.02 143.27-67.59 27.61-36.2 41.83-82.91 70.27-118.4 22.93-28.62 53.9-48.37 79.26-74.52 25.69-26.36 46.57-63.86 38.98-102.68-7.04-36-37.38-62.66-68.65-75.86-31.27-13.32-64.75-16.2-97.8-23.45-33-7.16-67.44-20.36-91.17-47.91z"/><path class="st1" d="M500.01 114.16c-9.95-11.47-17.56-11.61-31.65-13.21-14.4-1.59-28.52 1.91-42.32 5.52-20.46 5.32-34.16 12.71-54.28 15.79-1.29.2-2.61.38-3.96.55-44.48 5.46-85.15-28.78-128.86-42.21-12.53-3.85-25.41-5.77-38.25-5.88-49.61-.32-97.11 26.88-119.61 73.89-26.29 54.93-14.79 131.05 28.55 177.2 36.57 38.94 89.55 55.42 124.45 96.04 24.46 28.46 37.03 65.82 58.72 96.29 24.31 34.15 59.89 58.31 97.9 69.23 12.31 3.53 24.91 5.66 37.54 6.22 51.67 2.26 102.64-21.81 134.68-63.58 26.02-33.93 39.55-77.68 66.34-110.96 21.6-26.83 50.71-45.4 74.58-69.93 24.22-24.75 43.98-59.94 37.01-96.43-6.46-33.75-34.78-58.77-63.97-71.23-29.19-12.59-60.49-15.43-91.43-22.32-30.87-6.81-63.11-19.25-85.44-44.98z"/><path class="st1" d="M497.38 127.99c-9.38-10.71-16.59-10.85-29.82-12.33-13.55-1.47-26.83 1.83-39.81 5.23-19.22 5.02-32.16 11.99-51.06 14.93-1.22.19-2.46.37-3.72.53-41.84 5.26-80.15-26.45-121.28-38.8-11.79-3.55-23.91-5.29-35.98-5.34-46.69-.12-91.23 25.51-112.26 69.88-24.33 51.34-13.67 122.24 26.71 165.34 34.07 36.37 83.43 51.84 116.03 89.68 22.84 26.51 34.63 61.28 54.96 89.57 22.84 31.77 56.19 54.09 91.76 64.11 11.52 3.24 23.3 5.18 35.12 5.66 48.33 1.94 96-20.59 126.08-59.57 24.44-31.66 37.26-72.45 62.41-103.52 20.27-25.05 47.51-42.42 69.9-65.34 22.75-23.15 41.4-56.03 35.03-90.19-5.88-31.5-32.2-54.82-59.28-66.6-27.13-11.8-56.22-14.65-85.05-21.18-28.77-6.46-58.8-18.14-79.74-42.06z"/><path class="st1" d="M494.76 141.82c-8.8-9.96-15.62-10.09-27.98-11.45-12.7-1.35-25.15 1.74-37.31 4.94-17.98 4.71-30.15 11.26-47.84 14.06-1.14.18-2.3.35-3.49.51-39.19 5.07-75.14-24.11-113.7-35.39-11.05-3.24-22.4-4.81-33.71-4.81-43.78.08-85.35 24.13-104.91 65.88-22.37 47.74-12.56 113.43 24.87 153.47 31.58 33.79 77.32 48.26 107.61 83.32 21.23 24.56 32.23 56.75 51.19 82.85 21.36 29.4 52.49 49.86 85.61 58.99 10.72 2.95 21.7 4.7 32.69 5.1 44.99 1.62 89.37-19.38 117.49-55.57 22.85-29.4 34.98-67.22 58.48-96.08 18.94-23.27 44.32-39.45 65.21-60.75 21.28-21.55 38.82-52.11 33.05-83.95-5.3-29.24-29.6-50.93-54.6-61.98-25.04-11.06-51.96-13.88-78.67-20.05-26.62-6.06-54.46-16.97-73.99-39.09z"/><path class="st1" d="M492.14 155.66c-8.22-9.21-14.66-9.33-26.15-10.57-11.85-1.23-23.46 1.65-34.81 4.66-16.74 4.41-28.15 10.53-44.62 13.2-1.06.18-2.15.34-3.25.49-36.54 4.88-70.14-21.78-106.12-31.98-10.31-2.93-20.9-4.32-31.44-4.28-40.87.28-79.48 22.76-97.57 61.88-20.41 44.15-11.44 104.63 23.03 141.61 29.09 31.21 71.2 44.68 99.2 76.96 19.61 22.61 29.83 52.21 47.42 76.12 19.88 27.03 48.8 45.63 79.47 53.86 9.93 2.67 20.09 4.22 30.27 4.54 41.66 1.29 82.73-18.16 108.9-51.56 21.27-27.13 32.7-61.99 54.55-88.64 17.62-21.48 41.13-36.48 60.53-56.17 19.81-19.95 36.23-48.19 31.07-77.7-4.72-26.99-27-47.04-49.91-57.35-22.96-10.33-47.69-13.11-72.3-18.91-24.51-5.71-50.14-15.86-68.27-36.16z"/><path class="st1" d="M489.52 169.49c-7.64-8.45-13.69-8.59-24.31-9.69-11-1.14-21.77 1.56-32.31 4.37-15.5 4.11-26.15 9.8-41.4 12.34-.99.17-1.99.32-3.02.46-33.89 4.69-65.13-19.44-98.54-28.57-9.57-2.62-19.39-3.84-29.18-3.74-37.95.48-73.6 21.38-90.22 57.87-18.46 40.55-10.32 95.82 21.2 129.74 26.59 28.64 65.09 41.11 90.78 70.6 18 20.66 27.44 47.68 43.66 69.4 18.41 24.65 45.1 41.4 73.32 48.74 9.14 2.38 18.49 3.74 27.85 3.98 38.32.97 76.09-16.95 100.31-47.55 19.68-24.86 30.41-56.76 50.62-81.2 16.29-19.7 37.9-33.55 55.85-51.58 18.3-18.39 33.65-44.27 29.1-71.46-4.14-24.73-24.39-43.15-45.23-52.72-20.88-9.6-43.42-12.33-65.92-17.78-22.4-5.33-45.84-14.72-62.56-33.21z"/><path class="st1" d="M486.89 183.32c-7.07-7.7-12.72-7.83-22.48-8.81-10.15-1.02-20.09 1.47-29.81 4.08-14.26 3.8-24.16 9.04-38.17 11.47-.91.16-1.84.31-2.78.44-31.25 4.49-60.13-17.11-90.95-25.16a99.771 99.771 0 00-26.91-3.21c-35.04.68-67.73 20.01-82.87 53.87-16.51 36.94-9.2 87.01 19.36 117.88 24.1 26.06 58.97 37.53 82.36 64.23 16.38 18.71 25.04 43.14 39.89 62.68 16.94 22.28 41.4 37.17 67.18 43.62 8.35 2.09 16.88 3.26 25.43 3.42 34.98.64 69.45-15.73 91.72-43.54 18.09-22.59 28.13-51.53 46.69-73.76 14.96-17.92 34.71-30.57 51.16-46.99 16.83-16.78 31.06-40.35 27.12-65.21-3.57-22.47-21.79-39.26-40.54-48.1-18.8-8.86-39.15-11.61-59.54-16.64-20.29-5.01-41.54-13.59-56.86-30.27z"/><path class="st1" d="M484.27 197.15c-6.49-6.94-11.76-7.07-20.64-7.93-9.3-.9-18.4 1.38-27.31 3.79-13.02 3.5-22.16 8.31-34.95 10.61-.83.15-1.68.29-2.54.42-28.6 4.3-55.13-14.78-83.37-21.75a93.26 93.26 0 00-24.64-2.68c-32.13.87-61.86 18.62-75.52 49.87-14.57 33.33-8.08 78.2 17.52 106.01 21.61 23.48 52.86 33.95 73.94 57.87 14.77 16.76 22.65 38.6 36.13 55.96 15.46 19.91 37.7 32.95 61.03 38.5 7.56 1.8 15.27 2.78 23 2.86 31.64.32 62.82-14.52 83.13-39.53 16.51-20.32 25.85-46.3 42.76-66.32 13.63-16.13 31.51-27.6 46.48-42.4 15.36-15.18 28.48-36.43 25.14-58.97-2.99-20.21-19.19-35.37-35.85-43.47-16.72-8.13-34.88-10.83-53.16-15.51-18.19-4.64-37.24-12.45-51.15-27.33z"/><path class="st1" d="M481.65 210.99c-5.92-6.19-10.79-6.31-18.81-7.05-8.45-.78-16.72 1.3-24.81 3.51-11.78 3.2-20.16 7.59-31.73 9.74-.76.14-1.52.28-2.31.4-25.95 4.11-50.12-12.44-75.79-18.34-7.35-1.69-14.88-2.39-22.37-2.15-29.21 1.07-55.99 17.23-68.17 45.86-12.64 29.71-6.96 69.39 15.68 94.15 19.11 20.91 46.74 30.37 65.52 51.51 13.15 14.81 20.26 34.07 32.36 49.23 14 17.54 34.01 28.72 54.89 33.37 6.76 1.51 13.67 2.3 20.58 2.3 28.31-.01 56.18-13.3 74.54-35.53 14.92-18.06 23.56-41.07 38.83-58.88 12.3-14.35 28.32-24.63 41.8-37.81 13.89-13.58 25.89-32.5 23.17-52.73-2.42-17.95-16.59-31.48-31.17-38.84-14.64-7.4-30.62-10.06-46.79-14.37-16.06-4.26-32.93-11.3-45.42-24.37z"/><path class="st1" d="M479.02 224.82c-5.35-5.43-9.83-5.55-16.98-6.18-7.6-.66-15.03 1.21-22.31 3.22-10.55 2.89-18.16 6.86-28.51 8.88-.68.13-1.37.26-2.07.38-23.3 3.92-45.12-10.11-68.21-14.92a80.789 80.789 0 00-20.1-1.61c-26.3 1.27-50.12 15.84-60.82 41.86-10.73 26.08-5.84 60.58 13.84 82.28 16.62 18.33 40.63 26.8 57.1 45.15 11.54 12.86 17.87 29.53 28.59 42.51 12.53 15.17 30.31 24.49 48.74 28.25a85.818 85.818 0 0018.16 1.75c24.97-.33 49.54-12.09 65.95-31.52 13.34-15.79 21.28-35.84 34.91-51.44 10.97-12.57 25.13-21.66 37.11-33.22 12.42-11.98 23.3-28.57 21.19-46.49-1.85-15.69-13.99-27.59-26.48-34.22-12.56-6.66-26.35-9.29-40.41-13.24-13.94-3.9-28.61-10.17-39.7-21.44z"/><path class="st1" d="M476.4 238.65c-4.77-4.68-8.86-4.79-15.14-5.3-6.75-.54-13.35 1.12-19.81 2.93-9.31 2.59-16.16 6.13-25.28 8.02-.6.12-1.21.25-1.84.36-20.65 3.72-40.11-7.78-60.63-11.51a75.07 75.07 0 00-17.84-1.08c-23.38 1.47-44.26 14.44-53.47 37.86-8.83 22.44-4.72 51.78 12 70.42 14.12 15.75 34.51 23.22 48.68 38.79 9.92 10.91 15.49 24.99 24.83 35.79 11.07 12.8 26.61 20.26 42.6 23.13 5.18.93 10.45 1.34 15.73 1.19 21.63-.65 42.9-10.87 57.36-27.51 11.75-13.52 19-30.61 30.98-44 9.65-10.79 21.93-18.69 32.43-28.63 10.95-10.38 20.71-24.64 19.21-40.24-1.29-13.43-11.39-23.7-21.8-29.59-10.48-5.93-22.08-8.51-34.03-12.1-11.82-3.57-24.32-9.06-33.98-18.53z"/><path class="st1" d="M473.78 252.48c-4.21-3.92-7.89-4.03-13.31-4.42-5.9-.42-11.66 1.03-17.3 2.65-8.07 2.29-14.16 5.41-22.06 7.15-.53.12-1.06.23-1.6.34-18.01 3.53-35.11-5.44-53.04-8.1-5.13-.77-10.36-.96-15.57-.55-20.48 1.63-38.41 13.02-46.12 33.85-6.95 18.78-3.6 42.97 10.17 58.55 11.63 13.17 28.4 19.64 40.26 32.43 8.31 8.96 13.12 20.45 21.06 29.07 9.62 10.43 22.92 16.03 36.46 18 4.39.64 8.85.86 13.31.63 18.29-.98 36.27-9.66 48.77-23.5 10.16-11.25 16.71-25.38 27.05-36.55 8.32-9 18.74-15.71 27.75-24.05 9.48-8.77 18.11-20.71 17.23-34-.73-11.16-8.79-19.81-17.11-24.96-8.4-5.2-17.81-7.74-27.66-10.97-9.74-3.18-20.06-7.89-28.29-15.57z"/><path class="st1" d="M471.16 266.32c-3.64-3.16-6.93-3.27-11.47-3.54-5.05-.3-9.98.94-14.8 2.36-6.83 1.98-12.16 4.68-18.84 6.29-.45.11-.91.21-1.37.31-15.36 3.34-30.11-3.11-45.46-4.69-4.39-.46-8.86-.48-13.3-.01-17.56 1.83-32.59 11.58-38.77 29.85-5.11 15.09-2.48 34.16 8.33 46.69 9.14 10.6 22.28 16.06 31.84 26.07 6.7 7.01 10.76 15.9 17.3 22.34 8.18 8.06 19.22 11.81 30.31 12.88 3.59.35 7.24.38 10.89.07 14.96-1.3 29.63-8.44 40.18-19.49 8.58-8.98 14.43-20.15 23.12-29.11 6.99-7.22 15.55-12.74 23.07-19.46 8.02-7.17 15.49-16.76 15.25-27.75-.19-8.88-6.19-15.93-12.43-20.34-6.32-4.47-13.55-6.97-21.28-9.83-7.62-2.83-15.78-6.75-22.57-12.64z"/><path class="st1" d="M468.53 280.15c-3.09-2.4-5.96-2.5-9.64-2.66-4.2-.18-8.29.85-12.3 2.07-5.59 1.68-10.15 3.96-15.62 5.42-.37.1-.75.2-1.13.29-12.71 3.15-25.1-.78-37.88-1.28-3.65-.15-7.35.01-11.03.52-14.65 2.04-26.81 10.11-31.43 25.84-3.34 11.37-1.36 25.35 6.49 34.82 6.64 8.02 16.17 12.48 23.42 19.71 5.08 5.06 8.43 11.34 13.53 15.62 6.78 5.68 15.52 7.58 24.17 7.76 2.8.06 5.64-.1 8.46-.49 11.62-1.63 22.99-7.23 31.59-15.48 6.99-6.71 12.15-14.92 19.19-21.67 5.66-5.44 12.36-9.76 18.38-14.87 6.55-5.56 12.85-12.81 13.28-21.51.32-6.6-3.6-12.05-7.74-15.71-4.25-3.75-9.28-6.19-14.9-8.7-5.49-2.43-11.51-5.55-16.84-9.68z"/><path fill="none" d="M195.35 268.23h904v700h-904z"/><g><path class="st1" d="M1649.01 314.48c61.42 39.36 135.59 41.73 203.14 33.27 67.55-8.46 133.67-26.4 202.85-22.78 69.17 3.63 145.2 34.28 183.19 97.63 40.12 66.9 26.6 149.74-3.94 214.49-30.53 64.75-76.22 120.57-100.38 188.64-29.95 84.4-24.72 181.73-52.46 267.13-34.16 105.15-120.22 186.27-225.65 212.68-105.43 26.41-227.76-2.51-320.72-75.82-63.75-50.27-113.76-119.46-182.28-161.81-97.8-60.45-217.08-56.55-317.91-110.56C915.31 893.33 839.12 744.68 859.89 616c20.77-128.68 136.49-224.86 265.73-220.88 93.07 2.87 193.83 51.03 276.14 14.83 41.88-18.42 62.92-41.96 101.4-66.32 24.11-15.26 48.83-30.76 77.36-36.33 28.55-5.55 42.11-9.73 68.49 7.18z"/><path class="st1" d="M1650.83 328.44c-25.6-16.36-38.79-12.3-66.46-6.9-27.69 5.41-51.68 20.46-75.08 35.28-35.1 22.23-55.27 43.77-91.33 61.14-2.29 1.1-4.64 2.19-7.06 3.26-79.86 35.19-177.59-11.31-267.88-13.96-25.89-.76-51.23 2.62-75.31 9.55-92.52 26.66-166.5 105.88-182.36 205.03-20.07 124.65 53.73 268.61 169.51 330.66 97.66 52.34 213.18 48.62 307.93 107.14 66.38 41 114.85 107.96 176.61 156.59 68.09 53.57 152.39 82.56 233.58 82.47 26.29-.03 52.25-3.11 77.23-9.38 102.16-25.68 185.57-104.31 218.74-206.2 26.94-82.75 21.97-177.05 51.05-258.84 23.45-65.96 67.74-120.06 97.36-182.82 29.64-62.77 42.81-143.06 4-207.94-36.75-61.38-110.33-91.12-177.3-94.69-66.97-3.58-131 13.72-196.43 21.87-65.44 8.15-137.28 5.83-196.8-32.26z"/><path class="st1" d="M1652.65 342.4c-24.82-15.82-37.63-11.88-64.44-6.64-26.85 5.26-50.11 19.85-72.79 34.22-34.02 21.55-53.6 42.46-88.54 59.32-2.22 1.07-4.5 2.12-6.85 3.16-77.4 34.18-172.11-10.65-259.61-13.08-25.1-.7-49.65 2.61-72.99 9.35-89.69 25.94-161.39 102.74-176.62 198.93-19.37 120.61 52.05 259.89 164.07 319.96 94.48 50.67 206.26 47.12 297.94 103.72 64.24 39.65 111.16 104.38 170.93 151.38 65.96 51.75 147.55 79.7 226.15 79.52 25.44-.06 50.57-3.06 74.75-9.16 98.88-24.94 179.64-101.08 211.83-199.71 26.14-80.1 21.43-171.37 49.63-250.54 22.75-63.85 65.63-116.24 94.34-177 28.74-60.79 41.55-138.53 4.07-201.39-35.52-59.42-106.65-88.24-171.41-91.76-64.76-3.54-126.7 13.13-190.02 20.95-63.3 7.86-132.82 5.6-190.44-31.23z"/><path class="st1" d="M1654.47 356.36c-24.04-15.27-36.48-11.46-62.43-6.37-26 5.11-48.53 19.24-70.5 33.17-32.94 20.88-51.93 41.14-85.75 57.49-2.15 1.04-4.35 2.06-6.63 3.07-74.94 33.17-166.63-9.99-251.34-12.2-24.3-.63-48.07 2.59-70.67 9.15-86.86 25.22-156.28 99.6-170.89 192.84-18.67 116.58 50.37 251.18 158.62 309.26 91.31 49 199.33 45.63 287.96 100.3 62.1 38.3 107.48 100.8 165.26 146.17 63.83 49.94 142.72 76.83 218.71 76.57 24.6-.08 48.9-3.01 72.28-8.94 95.61-24.21 173.71-97.86 204.92-193.22 25.34-77.45 20.89-165.68 48.22-242.25 22.04-61.74 63.52-112.42 91.32-171.18 27.84-58.81 40.3-133.99 4.14-194.85-34.28-57.45-102.96-85.35-165.51-88.82-62.55-3.49-122.41 12.53-183.61 20.04-61.19 7.53-128.38 5.33-184.1-30.23z"/><path class="st1" d="M1656.29 370.32c-23.26-14.73-35.32-11.04-60.41-6.11-25.16 4.95-46.96 18.63-68.22 32.12-31.86 20.2-50.25 39.83-82.96 55.67-2.08 1.01-4.21 2-6.41 2.97-72.49 32.16-161.14-9.34-243.08-11.33-23.5-.57-46.49 2.58-68.35 8.95-84.03 24.51-150.96 96.51-165.15 186.74-17.71 112.62 48.68 242.46 153.17 298.56 88.14 47.33 192.4 44.14 277.98 96.88 59.95 36.95 103.79 97.23 159.58 140.95 61.69 48.13 137.89 73.97 211.27 73.62 23.76-.11 47.22-2.97 69.8-8.71 92.34-23.48 167.79-94.64 198-186.74 24.54-74.8 20.35-160 46.81-233.95 21.33-59.64 61.42-108.6 88.3-165.36 26.95-56.83 39.05-129.46 4.21-188.3-33.04-55.48-99.28-82.47-159.62-85.89-60.35-3.45-118.11 11.94-177.2 19.13-59.03 7.24-123.9 5.09-177.72-29.2z"/><path class="st1" d="M1658.11 384.28c-22.48-14.19-34.17-10.62-58.39-5.85-24.31 4.8-45.38 18.02-65.93 31.07-30.77 19.53-48.58 38.51-80.16 53.84-2.01.98-4.07 1.94-6.19 2.88-70.03 31.16-155.66-8.68-234.81-10.45-22.7-.51-44.91 2.57-66.03 8.75-81.2 23.79-145.8 93.38-159.42 180.64-16.95 108.6 47 233.74 147.73 287.86 84.96 45.65 185.48 42.65 267.99 93.46 57.81 35.6 100.11 93.65 153.91 135.74 59.56 46.31 133.06 71.11 203.84 70.67 22.91-.14 45.54-2.93 67.32-8.49 89.07-22.75 161.86-91.41 191.09-180.25 23.74-72.15 19.81-154.32 45.39-225.66 20.63-57.53 59.31-104.78 85.28-159.54 26.05-54.85 37.8-124.93 4.28-181.75-31.8-53.52-95.59-79.59-153.72-82.95-58.14-3.4-113.82 11.34-170.78 18.22-56.94 6.93-119.48 4.83-171.4-28.19z"/><path class="st1" d="M1659.94 398.24c-21.67-13.69-33.01-10.2-56.38-5.58-23.47 4.65-43.81 17.41-63.64 30.01-29.69 18.86-46.9 37.2-77.37 52.01-1.94.94-3.93 1.87-5.98 2.79-67.58 30.15-150.18-8.02-226.54-9.57-21.9-.45-43.33 2.56-63.71 8.55-78.37 23.07-140.64 90.25-153.69 174.55-16.18 104.59 45.32 225.02 142.28 277.16 81.79 43.98 178.55 41.15 258.01 90.05 55.67 34.26 96.35 90.17 148.24 130.53 57.35 44.61 128.23 68.24 196.4 67.72 22.07-.17 43.87-2.88 64.85-8.26 85.79-22.02 155.93-88.19 184.18-173.76 22.94-69.5 19.28-148.64 43.98-217.36 19.92-55.42 57.2-100.96 82.26-153.72 25.15-52.86 36.66-120.45 4.34-175.2-30.46-51.6-91.91-76.71-147.83-80.02-55.93-3.36-109.53 10.75-164.37 17.31-54.8 6.59-114.96 4.43-165.03-27.21z"/><path class="st1" d="M1661.76 412.21c-20.88-13.16-31.85-9.78-54.36-5.32-22.62 4.5-42.24 16.8-61.36 28.96-28.61 18.18-45.23 35.88-74.58 50.19-1.87.91-3.78 1.81-5.76 2.69-65.12 29.14-144.7-7.36-218.27-8.7-21.1-.38-41.75 2.55-61.39 8.35-75.54 22.35-135.48 87.13-147.95 168.45-15.42 100.57 43.63 216.31 136.84 266.47 78.62 42.31 171.63 39.66 248.03 86.63 53.53 32.91 92.66 86.61 142.56 125.31 55.2 42.81 123.4 65.38 188.97 64.77 21.23-.2 42.19-2.84 62.37-8.04 82.52-21.28 150-84.96 177.26-167.27 22.14-66.85 18.74-142.96 42.57-209.07 19.22-53.31 55.09-97.14 79.24-147.9 24.26-50.88 35.43-115.93 4.41-168.65-29.21-49.65-88.22-73.82-141.93-77.08-53.73-3.31-105.23 10.15-157.96 16.4-52.69 6.28-110.51 4.16-158.69-26.19z"/><path class="st1" d="M1663.58 426.17c-20.1-12.62-30.7-9.35-52.34-5.06-21.78 4.35-40.66 16.19-59.07 27.91-27.52 17.51-43.56 34.57-71.79 48.36-1.8.88-3.64 1.75-5.54 2.6-62.67 28.13-139.22-6.71-210.01-7.82-20.3-.32-40.17 2.54-59.07 8.15-72.71 21.63-130.32 84-142.22 162.36-14.66 96.56 41.95 207.59 131.39 255.76 75.45 40.64 164.7 38.17 238.04 83.21 51.39 31.56 88.96 83.05 136.89 120.1 53.06 41.02 118.57 62.51 181.53 61.82 20.38-.23 40.52-2.79 59.9-7.81 79.25-20.55 144.08-81.74 170.35-160.79 21.34-64.2 18.2-137.28 41.15-200.77 18.51-51.2 52.99-93.32 76.23-142.08 23.36-48.9 34.2-111.4 4.48-162.1-27.95-47.69-84.54-70.94-136.04-74.15-51.52-3.27-100.94 9.56-151.54 15.49-50.56 5.97-106.05 3.88-152.34-25.18z"/><path class="st1" d="M1665.4 440.13c-19.31-12.08-29.54-8.93-50.33-4.79-20.93 4.2-39.09 15.58-56.78 26.86-26.44 16.83-41.88 33.25-68.99 46.54-1.73.85-3.5 1.68-5.33 2.51-60.21 27.12-133.73-6.05-201.74-6.94-19.5-.26-38.59 2.53-56.74 7.95-69.88 20.91-125.16 80.87-136.48 156.26-13.9 92.54 40.27 198.87 125.94 245.06 72.27 38.97 157.77 36.68 228.06 79.79 49.25 30.21 85.26 79.49 131.21 114.89 50.91 39.22 113.74 59.65 174.09 58.86 19.54-.25 38.84-2.75 57.42-7.59 75.98-19.82 138.15-78.52 163.44-154.3 20.54-61.55 17.66-131.59 39.74-192.48 17.8-49.09 50.88-89.5 73.21-136.26 22.46-46.92 32.96-106.88 4.55-155.55-26.69-45.73-80.85-68.06-130.14-71.21-49.31-3.22-96.64 8.96-145.13 14.58-48.44 5.65-101.61 3.59-146-24.18z"/><path class="st1" d="M1667.22 454.09c-18.53-11.55-28.39-8.51-48.31-4.53-20.09 4.04-37.51 14.97-54.49 25.8-25.36 16.16-40.21 31.94-66.2 44.71-1.66.82-3.36 1.62-5.11 2.41-57.75 26.11-128.25-5.39-193.47-6.07-18.7-.2-37.01 2.52-54.42 7.75-67.05 20.19-120 77.74-130.75 150.17-13.14 88.52 38.59 190.15 120.5 234.37 69.1 37.3 150.85 35.18 218.08 76.37 47.1 28.86 81.57 75.92 125.54 109.67 48.76 37.43 108.9 56.78 166.66 55.91 18.7-.28 37.17-2.7 54.94-7.37 72.7-19.09 132.22-75.29 156.53-147.81 19.74-58.9 17.12-125.91 38.33-184.18 17.1-46.99 48.77-85.68 70.19-130.44 21.57-44.94 31.73-102.35 4.62-149.01-25.44-43.77-77.17-65.18-124.25-68.28-47.11-3.18-92.35 8.37-138.72 13.67-46.34 5.37-97.17 3.35-139.67-23.14z"/><path class="st1" d="M1669.04 468.05c-17.74-11.01-27.23-8.09-46.29-4.26-19.24 3.89-35.94 14.37-52.21 24.75-24.28 15.48-38.53 30.62-63.41 42.89-1.59.78-3.21 1.56-4.89 2.32-55.3 25.1-122.77-4.74-185.2-5.19-17.9-.13-35.43 2.51-52.1 7.55-64.22 19.47-114.84 74.61-125.02 144.07-12.38 84.51 36.9 181.44 115.05 223.67 65.93 35.63 143.92 33.69 208.09 72.95 44.96 27.51 77.87 72.36 119.86 104.46 46.62 35.63 104.07 53.92 159.22 52.96 17.85-.31 35.49-2.66 52.47-7.14 69.43-18.35 126.29-72.07 149.61-141.33 18.94-56.25 16.58-120.23 36.91-175.89 16.39-44.88 46.67-81.86 67.17-124.62 20.67-42.96 30.5-97.83 4.69-142.46-24.18-41.81-73.48-62.29-118.36-65.34-44.9-3.13-88.05 7.77-132.3 12.76-44.18 5.04-92.68 3.05-133.29-22.15z"/><path class="st1" d="M1670.86 482.01c-16.96-10.47-26.08-7.67-44.27-4-18.4 3.74-34.37 13.76-49.92 23.7-23.19 14.81-36.86 29.3-60.62 41.06-1.52.75-3.07 1.49-4.67 2.22-52.84 24.1-117.29-4.08-176.94-4.31-17.1-.07-33.85 2.5-49.78 7.35-61.39 18.75-109.68 71.48-119.28 137.98-11.62 80.49 35.22 172.72 109.61 212.96 62.75 33.96 137 32.2 198.11 69.54 42.82 26.16 74.18 68.8 114.19 99.25 44.47 33.84 99.24 51.05 151.79 50.01 17.01-.34 33.81-2.61 49.99-6.92 66.16-17.62 120.36-68.84 142.7-134.84 18.14-53.6 16.04-114.55 35.5-167.59 15.69-42.77 44.56-78.04 64.15-118.8 19.77-40.98 29.26-93.3 4.75-135.91-22.93-39.85-69.8-59.41-112.46-62.41-42.69-3.09-83.76 7.18-125.89 11.85-42.08 4.73-88.24 2.78-126.96-21.14z"/><path class="st1" d="M1672.68 495.97c-16.17-9.94-24.92-7.25-42.26-3.74-17.55 3.59-32.79 13.15-47.63 22.65-22.11 14.13-35.19 27.99-57.82 39.23-1.45.72-2.93 1.43-4.46 2.13-50.39 23.09-111.81-3.42-168.67-3.44-16.3-.01-32.27 2.49-47.46 7.15-58.56 18.04-104.52 68.35-113.55 131.88-10.86 76.47 33.54 164 104.16 202.26 59.58 32.29 130.07 30.7 188.13 66.12 40.68 24.81 70.48 65.24 108.52 94.03 42.33 32.04 94.41 48.19 144.35 47.06 16.17-.37 32.14-2.57 47.51-6.69 62.89-16.89 114.44-65.62 135.79-128.35 17.34-50.95 15.51-108.87 34.09-159.29 14.98-40.66 42.45-74.22 61.13-112.98 18.88-39 28.03-88.78 4.82-129.36-21.67-37.9-66.11-56.53-106.57-59.47-40.49-3.04-79.46 6.58-119.48 10.94-39.94 4.41-83.78 2.5-120.6-20.13z"/><path class="st1" d="M1674.5 509.93c-15.39-9.4-23.77-6.82-40.24-3.47-16.71 3.44-31.22 12.54-45.35 21.59-21.03 13.46-33.51 26.67-55.03 37.41-1.38.69-2.79 1.37-4.24 2.04-47.93 22.08-106.32-2.77-160.4-2.56-15.51.06-30.68 2.47-45.14 6.95-55.73 17.32-99.36 65.22-107.81 125.79-10.11 72.45 31.85 155.28 98.71 191.56 56.41 30.61 123.14 29.21 178.14 62.7 38.54 23.46 66.79 61.68 102.84 88.82 40.18 30.25 89.58 45.33 136.92 44.11 15.33-.4 30.46-2.52 45.04-6.47 59.62-16.16 108.51-62.4 128.87-121.87 16.54-48.3 14.97-103.19 32.67-151 14.27-38.55 40.35-70.4 58.11-107.16 17.98-37.02 26.8-84.25 4.89-122.81-20.42-35.93-62.43-53.65-100.67-56.54-38.28-3-75.17 5.99-113.07 10.03-37.81 4.1-79.31 2.23-114.24-19.12z"/><path class="st1" d="M1676.33 523.89c-14.6-8.87-22.61-6.4-38.22-3.21-15.86 3.28-29.65 11.93-43.06 20.54-19.95 12.78-31.84 25.36-52.24 35.58-1.31.66-2.64 1.31-4.02 1.94-45.48 21.07-100.84-2.11-152.13-1.68-14.71.12-29.11 2.46-42.82 6.74-52.9 16.6-94.2 62.08-102.08 119.69-9.36 68.43 30.17 146.56 93.27 180.86 53.23 28.94 116.22 27.72 168.16 59.28 36.39 22.11 63.09 58.12 97.17 83.61 38.04 28.45 84.75 42.46 129.48 41.16 14.48-.42 28.79-2.48 42.56-6.25 56.34-15.42 102.58-59.17 121.96-115.38 15.74-45.65 14.43-97.51 31.26-142.71 13.57-36.45 38.24-66.58 55.09-101.34 17.08-35.03 25.57-79.72 4.96-116.26-19.17-33.98-58.74-50.76-94.78-53.6-36.07-2.95-70.87 5.39-106.65 9.12-35.71 3.81-74.88 1.97-107.91-18.09z"/><path class="st1" d="M1678.15 537.85c-13.82-8.33-21.46-5.98-36.21-2.95-15.02 3.13-28.07 11.32-40.77 19.49-18.86 12.11-30.16 24.04-49.45 33.76-1.24.63-2.5 1.24-3.81 1.85-43.02 20.06-95.36-1.45-143.87-.8-13.91.18-27.52 2.45-40.5 6.54-50.07 15.88-89.04 58.95-96.34 113.59-8.6 64.41 28.49 137.85 87.82 170.17 50.06 27.27 109.29 26.23 158.18 55.86 34.25 20.77 59.4 54.56 91.49 78.39 35.89 26.66 79.92 39.6 122.04 38.21 13.64-.45 27.11-2.43 40.08-6.02 53.07-14.69 96.65-55.95 115.05-108.89 14.95-43 13.89-91.82 29.85-134.41 12.86-34.34 36.13-62.76 52.07-95.52 16.19-33.05 24.33-75.2 5.02-109.71-17.91-32.02-55.06-47.88-88.88-50.67-33.87-2.91-66.58 4.8-100.24 8.21-33.56 3.48-70.39 1.68-101.53-17.1z"/><path class="st1" d="M1679.97 551.81c-13.03-7.79-20.3-5.56-34.19-2.68-14.17 2.98-26.5 10.71-38.49 18.43-17.78 11.43-28.49 22.73-46.65 31.93-1.17.59-2.36 1.18-3.59 1.76-40.56 19.05-89.88-.79-135.6.07-13.11.24-25.94 2.44-38.17 6.34-47.23 15.16-83.89 55.82-90.61 107.5-7.86 60.39 26.8 129.13 82.38 159.47 46.89 25.6 102.36 24.73 148.19 52.44 32.11 19.42 55.7 50.99 85.82 73.18 33.75 24.86 75.09 36.73 114.61 35.25 12.8-.48 25.43-2.39 37.61-5.8 49.8-13.96 90.73-52.72 108.14-102.41 14.15-40.36 13.35-86.14 28.43-126.12 12.16-32.23 34.02-58.94 49.06-89.7 15.29-31.07 23.1-70.67 5.09-103.16-16.66-30.06-51.37-45-82.99-47.73-31.66-2.86-62.28 4.2-93.83 7.3-31.46 3.19-65.97 1.42-95.21-16.07z"/><path class="st1" d="M1681.79 565.78c-12.25-7.26-19.15-5.14-32.17-2.42-13.33 2.83-24.92 10.1-36.2 17.38-16.7 10.76-26.82 21.41-43.86 30.11-1.09.56-2.22 1.12-3.37 1.66-38.11 18.05-84.4-.14-127.33.95-12.31.31-24.36 2.43-35.85 6.14-44.4 14.44-78.73 52.68-84.88 101.4-7.11 56.36 25.12 120.41 76.93 148.76 43.71 23.93 95.44 23.24 138.21 49.03 29.97 18.07 52.01 47.43 80.14 67.97 31.6 23.07 70.25 33.87 107.17 32.3 11.95-.51 23.76-2.34 35.13-5.57 46.53-13.23 84.8-49.5 101.22-95.92 13.35-37.71 12.81-80.46 27.02-117.82 11.45-30.12 31.92-55.12 46.04-83.88 14.39-29.09 21.87-66.14 5.16-96.61-15.4-28.09-47.69-42.05-77.09-44.8-29.45-2.75-57.99 3.61-87.41 6.39-29.34 2.86-61.51 1.13-88.86-15.07z"/><path class="st1" d="M1683.61 579.74c-11.46-6.72-17.99-4.72-30.16-2.16-12.48 2.68-23.35 9.49-33.91 16.33-15.61 10.09-25.14 20.1-41.07 28.28a116.4 116.4 0 01-3.16 1.57c-35.65 17.04-78.91.52-119.06 1.83-11.51.37-22.78 2.42-33.53 5.94-41.57 13.72-73.57 49.55-79.14 95.31-6.37 52.34 23.44 111.69 71.49 138.06 40.54 22.26 88.51 21.75 128.23 45.61 27.83 16.72 48.32 43.87 74.47 62.76 29.46 21.28 65.42 31 99.74 29.35 11.11-.54 22.08-2.3 32.65-5.35 43.25-12.49 78.87-46.28 94.31-89.43 12.55-35.06 12.28-74.78 25.61-109.52 10.74-28.01 29.81-51.3 43.02-78.06 13.5-27.11 20.63-61.61 5.23-90.07-14.15-26.13-44-39.16-71.2-41.86-27.24-2.7-53.69 3.01-81 5.48-27.22 2.54-57.07.85-82.52-14.07z"/><path class="st1" d="M1685.43 593.7c-10.68-6.18-16.84-4.29-28.14-1.89-11.64 2.52-21.78 8.88-31.62 15.28-14.53 9.41-23.47 18.78-38.28 26.45-.95.5-1.93.99-2.94 1.48-33.2 16.03-73.43 1.18-110.8 2.7-10.71.43-21.2 2.41-31.21 5.74-38.74 13-68.42 46.41-73.41 89.21-5.63 48.31 21.76 102.98 66.04 127.37 37.37 20.59 81.59 20.25 118.24 42.19 25.68 15.37 44.62 40.31 68.79 57.54 27.32 19.48 60.59 28.14 92.3 26.4 10.27-.56 20.41-2.25 30.18-5.12 39.98-11.76 72.94-43.05 87.4-82.94 11.75-32.41 11.74-69.1 24.19-101.23 10.04-25.91 27.7-47.48 40-72.24 12.6-25.13 19.4-57.09 5.3-83.52-12.9-24.17-40.32-36.28-65.31-38.93-25.04-2.66-49.4 2.42-74.59 4.57-25.06 2.23-52.59.58-76.14-13.06z"/><path class="st1" d="M1687.25 607.66c-9.9-5.65-15.69-3.9-26.12-1.63-10.8 2.35-20.2 8.27-29.34 14.22-13.45 8.74-21.79 17.47-35.49 24.63-.88.47-1.79.93-2.72 1.38-30.74 15.02-67.95 1.83-102.53 3.58-9.91.5-19.62 2.4-28.89 5.54-35.91 12.29-63.27 43.27-67.67 83.12-4.9 44.28 20.07 94.26 60.59 116.66 34.2 18.92 74.66 18.76 108.26 38.77 23.54 14.02 40.93 36.74 63.12 52.33 25.18 17.69 55.76 25.27 84.87 23.45 9.42-.59 18.73-2.21 27.7-4.9 36.71-11.03 67.01-39.83 80.48-76.46 10.95-29.76 11.2-63.41 22.78-92.93 9.33-23.8 25.55-43.69 36.98-66.42 11.66-23.18 18.17-52.56 5.36-76.97-11.65-22.21-36.63-33.39-59.41-35.99-22.83-2.61-45.1 1.82-68.17 3.66-22.95 1.93-48.14.31-69.8-12.04z"/><path class="st1" d="M1689.07 621.62c-9.12-5.11-14.53-3.48-24.11-1.37-9.96 2.2-18.63 7.66-27.05 13.17-12.37 8.06-20.13 16.13-32.69 22.8-.82.43-1.65.87-2.5 1.29-28.29 14.01-62.47 2.49-94.26 4.46-9.11.56-18.04 2.39-26.57 5.34-33.08 11.57-58.11 40.13-61.94 77.02-4.17 40.25 18.39 85.54 55.15 105.96 31.02 17.25 67.73 17.27 98.28 35.35 21.4 12.67 37.24 33.18 57.45 47.12 23.04 15.89 50.93 22.41 77.43 20.5 8.58-.62 17.06-2.16 25.23-4.68 33.44-10.3 61.09-36.6 73.57-69.97 10.15-27.11 10.66-57.73 21.37-84.64 8.63-21.69 23.44-39.87 33.96-60.6 10.76-21.2 16.94-48.02 5.43-70.42-10.4-20.24-32.95-30.51-53.52-33.06-20.63-2.56-40.82 1.18-61.76 2.75-20.85 1.58-43.71.06-63.47-11.02z"/><path class="st1" d="M1690.89 635.58c-8.33-4.57-13.38-3.05-22.09-1.1-9.11 2.04-17.05 7.05-24.76 12.12-11.28 7.39-18.46 14.81-29.9 20.98-.74.4-1.51.8-2.29 1.19-25.83 13-56.99 3.15-86 5.33a93.05 93.05 0 00-24.25 5.14c-30.25 10.85-52.97 36.98-56.21 70.93-3.45 36.21 16.71 76.82 49.7 95.27 27.85 15.57 60.81 15.78 88.29 31.93 19.26 11.32 33.56 29.62 51.77 41.9 20.9 14.1 46.1 19.55 69.99 17.55 7.74-.65 15.38-2.12 22.75-4.45 30.16-9.56 55.16-33.38 66.66-63.48 9.35-24.46 10.12-52.05 19.95-76.35 7.92-19.58 21.33-36.05 30.94-54.78 9.86-19.22 15.7-43.49 5.5-63.87-9.14-18.27-29.26-27.62-47.62-30.12-18.42-2.51-36.52.58-55.35 1.84-18.69 1.25-39.22-.23-57.08-10.03z"/><path class="st1" d="M1692.71 649.54c-7.55-4.04-12.22-2.63-20.07-.84-8.27 1.89-15.48 6.44-22.48 11.07-10.2 6.71-16.79 13.49-27.11 19.15-.67.37-1.36.74-2.07 1.1-23.37 12-51.5 3.8-77.73 6.21-7.51.68-14.88 2.36-21.93 4.94-27.42 10.13-47.82 33.83-50.47 64.83-2.75 32.17 15.03 68.1 44.26 84.56 24.68 13.9 53.88 14.28 78.31 28.52 17.12 9.97 29.87 26.05 46.1 36.69 18.77 12.3 41.27 16.68 62.56 14.59 6.89-.68 13.7-2.08 20.27-4.23 26.89-8.83 49.23-30.15 59.75-57 8.55-21.81 9.58-46.37 18.54-68.05 7.22-17.47 19.23-32.23 27.92-48.96 8.96-17.24 14.46-38.95 5.57-57.32-7.9-16.31-25.58-24.74-41.73-27.19-16.22-2.46-32.23-.01-48.94.93-16.58.95-34.8-.48-50.75-9z"/><path class="st1" d="M1694.54 663.5c-6.77-3.5-11.07-2.21-18.06-.57-7.42 1.74-13.91 5.83-20.19 10.02-9.12 6.04-15.11 12.18-24.32 17.33-.6.34-1.22.68-1.85 1.01-20.92 10.99-46.02 4.46-69.46 7.09a80.5 80.5 0 00-19.6 4.74c-24.59 9.41-42.68 30.68-44.74 58.74-2.06 28.13 13.34 59.39 38.81 73.86 21.5 12.23 46.96 12.79 68.33 25.1 14.97 8.62 26.19 22.48 40.42 31.48 16.64 10.51 36.44 13.82 55.12 11.64 6.05-.71 12.03-2.03 17.8-4 23.62-8.1 43.3-26.93 52.83-50.51 7.75-19.16 9.04-40.69 17.13-59.76 6.51-15.36 17.12-28.41 24.91-43.14 8.07-15.26 13.23-34.42 5.64-50.77-6.65-14.33-21.9-21.85-35.83-24.25-14.01-2.42-27.93-.61-42.52.02-14.48.6-30.38-.78-44.42-8.03z"/><path class="st1" d="M1696.36 677.46c-6-2.96-9.91-1.79-16.04-.31-6.58 1.59-12.33 5.22-17.9 8.96-8.03 5.36-13.44 10.87-21.52 15.5-.53.31-1.08.61-1.64.91-18.46 9.98-40.54 5.12-61.19 7.96-5.91.81-11.72 2.34-17.28 4.54-21.76 8.69-37.55 27.52-39 52.64-1.39 24.07 11.66 50.67 33.36 63.17 18.33 10.56 40.03 11.3 58.35 21.68 12.83 7.27 22.51 18.92 34.75 26.26 14.51 8.71 31.6 10.95 47.69 8.69 5.21-.73 10.35-1.99 15.32-3.78 20.35-7.37 37.38-23.71 45.92-44.02 6.95-16.51 8.51-35.01 15.71-51.46 5.8-13.26 15.01-24.59 21.89-37.32 7.17-13.28 11.99-29.87 5.7-44.23-5.41-12.36-18.21-18.97-29.94-21.32-11.81-2.37-23.64-1.21-36.11-.89-12.36.33-25.94-.99-38.07-6.98z"/><path class="st1" d="M1698.18 691.42c-5.22-2.42-8.76-1.37-14.02-.05-5.73 1.44-10.76 4.62-15.62 7.91-6.95 4.69-11.76 9.55-18.73 13.67-.46.28-.94.55-1.42.82-16.01 8.97-35.06 5.78-52.93 8.84a68.46 68.46 0 00-14.96 4.34c-18.95 7.93-32.44 24.35-33.27 46.55-.75 20.01 9.98 41.95 27.92 52.47 15.16 8.89 33.1 9.81 48.36 18.26 10.69 5.93 18.84 15.34 29.08 21.05 12.39 6.91 26.77 8.09 40.25 5.74 4.37-.76 8.68-1.94 12.84-3.55 17.08-6.63 31.45-20.48 39.01-37.54 6.15-13.86 7.97-29.33 14.3-43.17 5.1-11.15 12.91-20.77 18.87-31.5 6.27-11.29 10.75-25.32 5.77-37.68-4.18-10.37-14.53-16.08-24.04-18.38-9.6-2.32-19.34-1.8-29.7-1.8-10.22.01-21.5-1.25-31.71-5.98z"/><path class="st1" d="M1700 705.38c-4.45-1.87-7.6-.94-12 .22-4.89 1.29-9.18 4.01-13.33 6.86-5.87 4.01-10.09 8.24-15.94 11.85-.39.24-.79.49-1.2.72-13.55 7.96-29.58 6.43-44.66 9.72-4.31.94-8.56 2.31-12.64 4.14-16.12 7.22-27.35 21.17-27.53 40.45-.15 15.94 8.29 33.23 22.47 41.76 11.98 7.22 26.18 8.31 38.38 14.84 8.55 4.58 15.18 11.76 23.4 15.84 10.29 5.11 21.94 5.22 32.82 2.79 3.52-.79 7-1.9 10.37-3.33 13.8-5.9 25.52-17.26 32.09-31.05 5.35-11.21 7.43-23.64 12.89-34.87 4.39-9.04 10.8-16.95 15.85-25.68 5.38-9.31 9.49-20.76 5.84-31.13-2.95-8.38-10.85-13.2-18.15-15.45-7.4-2.28-15.04-2.39-23.29-2.71-8.1-.3-17.08-1.49-25.37-4.97z"/><path class="st1" d="M1701.82 719.35c-3.68-1.31-6.44-.52-9.99.48-4.04 1.14-7.61 3.4-11.04 5.81-4.79 3.34-8.41 6.93-13.15 10.02-.32.21-.65.42-.98.63-11.1 6.95-24.09 7.09-36.39 10.59-3.52 1-6.98 2.3-10.32 3.94-13.28 6.5-22.32 17.97-21.8 34.35.38 11.85 6.61 24.52 17.03 31.06 8.81 5.55 19.25 6.82 28.4 11.43 6.41 3.23 11.54 8.15 17.73 10.62 8.21 3.29 17.11 2.36 25.38-.16 2.68-.82 5.32-1.85 7.89-3.11 10.53-5.17 19.59-14.04 25.18-24.56 4.55-8.56 6.89-17.96 11.47-26.58 3.68-6.93 8.7-13.13 12.83-19.86 4.49-7.33 8.22-16.18 5.91-24.58-1.75-6.37-7.18-10.33-12.26-12.51-5.21-2.24-10.74-2.99-16.87-3.62-5.98-.61-12.67-1.69-19.02-3.95z"/></g></svg>