<svg version="1.1" id="Layer_1" xmlns="http://www.w3.org/2000/svg" x="0" y="0" viewBox="0 0 144.18 39.67" xml:space="preserve"><style>.st0{fill:#fff}</style><path class="st0" d="M21.12 9.89c-4.78 0-8.66 3.88-8.66 8.66v12.46c0 2.1-1.71 3.8-3.8 3.8-2.1 0-3.8-1.71-3.8-3.8 0-2.1 1.71-3.8 3.8-3.8.27 0 .49-.22.49-.49v-3.88a.49.49 0 00-.49-.49C3.89 22.35 0 26.23 0 31.01s3.89 8.66 8.66 8.66c4.78 0 8.66-3.88 8.66-8.66v-3.8h3.8c4.78 0 8.66-3.88 8.66-8.66s-3.88-8.66-8.66-8.66m0 12.46h-3.8v-3.8c0-2.1 1.71-3.8 3.8-3.8 2.1 0 3.8 1.71 3.8 3.8.01 2.09-1.7 3.8-3.8 3.8M126.26 23.11c-.43 0-.77-.12-1.02-.37s-.37-.59-.37-1.02V10.53a.39.39 0 00-.39-.39h-3.68a.39.39 0 00-.39.39v.29c0 .33-.38.5-.63.3-.36-.28-.78-.54-1.28-.76-.85-.38-1.86-.57-3.06-.57-1.19 0-2.29.21-3.28.63-1 .42-1.85 1.01-2.57 1.77-.72.76-1.27 1.67-1.67 2.75-.4 1.07-.6 2.27-.6 3.59 0 1.32.2 2.52.6 3.59.06.16.13.32.2.48-.03.1-.11.19-.11.19-.17.11-.35.19-.54.24-.18.05-.41.08-.67.08-.43 0-.78-.12-1.02-.37-.25-.25-.37-.59-.37-1.02V10.53a.39.39 0 00-.39-.39h-3.68a.39.39 0 00-.39.39v.29c0 .33-.38.5-.63.3-.36-.28-.78-.54-1.29-.76-.85-.38-1.86-.57-3.06-.57-1.19 0-2.29.21-3.28.63-1 .42-1.85 1.01-2.57 1.77-.72.76-1.27 1.67-1.67 2.75-.4 1.07-.6 2.27-.6 3.59 0 1.13.15 2.16.44 3.11.03.08.02.17-.01.25-.23.58-.55.93-.55.93-.2.09-.38.16-.55.21-.17.05-.4.08-.68.08-.46 0-.84-.19-1.17-.57-.17-.2-.35-.42-.55-.66-.17-.21-.34-.44-.53-.68a9.4 9.4 0 00-1.4-1.53c-.28-.24-.59-.43-.94-.58-.29-.12-.31-.54-.04-.69.36-.21.72-.44 1.07-.71a7.32 7.32 0 001.66-1.79c.06-.09.11-.19.17-.28.39-.65.71-1.39.94-2.22.23-.85.34-2.07.31-3.13a.387.387 0 00-.39-.37H81.64c-.21 0-.38.17-.39.39-.04 1.95-.38 3.68-1.02 4.68-.68 1.06-1.62 1.68-2.81 1.85l-.47.07a.39.39 0 01-.44-.38V.39a.39.39 0 00-.39-.39h-4.2a.39.39 0 00-.39.39V7.2l.02 15.37c0 .04-.01.08-.02.12l-.02 4.5H76.12c.21 0 .39-.17.39-.39v-5.77h.33c.48 0 .89.08 1.25.24.36.16.68.39.96.68.28.29.54.64.78 1.04s.49.83.75 1.28c.56 1.08 1.24 1.84 2.02 2.28.66.37 1.39.57 2.18.62.15.01.29.03.45.03.63 0 1.13-.05 1.5-.15.37-.1.7-.21 1.01-.34.53-.23 1.53-1.29 2.2-2.06l.19.22c.72.77 1.57 1.36 2.57 1.77 1 .41 2.09.62 3.28.62 1.17 0 2.19-.2 3.07-.59.71-.31 1.31-.71 1.8-1.2.17-.17.45-.14.59.06.35.49.82.87 1.4 1.14.74.35 1.54.52 2.41.52.76 0 1.34-.05 1.74-.16.4-.11.74-.23 1.02-.36 1.33-.49 1.96-1.43 1.96-1.43l-.01-.02c.64.6 1.37 1.07 2.21 1.41 1 .41 2.09.62 3.28.62 1.17 0 2.19-.2 3.07-.59.71-.31 1.31-.71 1.8-1.2.17-.17.45-.14.59.06.35.49.82.87 1.4 1.14.74.35 1.54.52 2.41.52.76 0 1.34-.05 1.74-.16m-25.78-8.1c0 1.34-.37 2.39-1.11 3.14-.74.75-1.69 1.12-2.86 1.12-1.19 0-2.17-.4-2.93-1.2-.76-.8-1.14-1.95-1.14-3.45 0-1.5.38-2.65 1.14-3.46.76-.81 1.73-1.22 2.93-1.22 1.17 0 2.12.37 2.86 1.12.74.75 1.11 1.8 1.11 3.17v.78zm19.47 0c0 1.34-.37 2.39-1.11 3.14-.74.75-1.69 1.12-2.86 1.12-1.19 0-2.17-.4-2.93-1.2-.76-.8-1.14-1.95-1.14-3.45 0-1.5.38-2.65 1.14-3.46.76-.81 1.73-1.22 2.93-1.22 1.17 0 2.12.37 2.86 1.12.74.75 1.11 1.8 1.11 3.17v.78zM50.01 21.74a.694.694 0 00-.9-.14c-.65.42-1.41.62-2.19.58a3.676 3.676 0 01-3.46-3.87c.08-1.46 1.01-2.74 2.51-3.3l.1-.03c1.09-.28 2.14-.12 3 .42.3.19.69.15.92-.11.62-.69 1.74-1.96 2.39-2.68.27-.31.23-.79-.1-1.03-1.35-1-2.98-1.6-4.67-1.69-3.28-.18-6.4 1.47-8.15 4.55-.1.19-.2.38-.28.58-2.44 5.92 1.7 11.82 7.45 12.15.17.01.33.01.5.01 1.87 0 3.67-.6 5.16-1.72.33-.25.37-.73.1-1.03l-2.38-2.69zM33.55 7.86c1.83.4 3.42-1.19 3.01-3.01-.2-.92-.95-1.66-1.87-1.87a2.507 2.507 0 00-1.14 4.88zM141.1 7.86c1.83.4 3.42-1.19 3.01-3.01-.2-.92-.95-1.66-1.87-1.87a2.507 2.507 0 00-1.14 4.88zM143.54 9.88h-3.73c-.35 0-.64.29-.64.64v16.01c0 .35.29.64.64.64h3.73c.35 0 .64-.29.64-.64V10.52c0-.36-.29-.64-.64-.64zM36.35 9.83H31.9a.28.28 0 00-.28.28V26.9c0 .15.12.28.28.28h4.45c.15 0 .28-.12.28-.28V10.11c0-.15-.13-.28-.28-.28zM136.82 9.85c-4.67.26-8.39 4.1-8.47 8.81v8.04c.01.25.21.45.47.45h4.09c.26 0 .47-.21.47-.47v-7.87c0-2.04 1.55-3.72 3.54-3.93.24-.02.42-.23.42-.47v-4.1a.493.493 0 00-.52-.46z"/><path class="st0" d="M71.19 22.89h-1.37c-.25 0-.45-.2-.45-.45 0-2.51-.01-5.94-.02-6.87-.03-3.05-2.63-5.73-5.68-5.74-1.32 0-2.51.37-3.61 1.2-.27.2-.65.02-.65-.31V8.63a3.938 3.938 0 013.5-3.61c.24-.03.42-.23.42-.46V.48c0-.27-.23-.48-.5-.47-4.64.26-8.35 4.08-8.43 8.77v8h.01v9.94c0 .26.21.47.47.47h4.07c.26 0 .47-.21.47-.47v-9.65-.04l.01-.23c0-1.13.76-2.22 1.8-2.5a2.452 2.452 0 013.09 2.11l.01.21c0 3.02.02 7-.01 10.1 0 .26.21.47.47.47h6.75v-4.5c-.08.16-.2.2-.35.2zM126.26 23.11s.25-.01.37-.04c.18-.04.32.15.32.31v3.31c0 .16-.17.26-.32.3-.13.03-.26.06-.39.08"/></svg>