<svg version="1.1" id="Layer_1" xmlns="http://www.w3.org/2000/svg" x="0" y="0" viewBox="0 0 64 256" xml:space="preserve"><style>.st0{fill:#19181b}.st1{fill:#fff}.st2{fill:none}.st3{fill:#020202}</style><g id="cto2IU.tif_3_"><path class="st0" d="M7.5 24H5c-2.1 0-3.8-1.3-4.3-3.3-.1-.4-.1-.7-.1-1.1V6c0-2.5 2-4.4 4.6-4.4h18.4c1.3 0 2.7-.1 4 .1 2.4.2 4 2 4 4.4V19.5c0 2.5-1.9 4.5-4.5 4.5H15.3c-.4 0-.6.1-.9.4-1.7 1.9-3.4 3.8-5 5.7-.6.6-1.5.4-1.8-.2-.1-.2-.1-.4-.1-.6v-4.8-.5zm2.1 2.6l.4-.4c1.1-1.3 2.2-2.5 3.3-3.8.3-.4.7-.5 1.2-.5H27c1.4 0 2.4-1 2.4-2.4V6.2c0-1.6-1-2.5-2.5-2.5H5.1c-1.5 0-2.5.9-2.5 2.3v13.5c0 1.5 1 2.4 2.4 2.4h3.3c.9 0 1.2.4 1.3 1.2v3.5z"/><path class="st0" d="M15.8 11.2H7.4c-.7 0-1.1-.4-1.1-1s.4-1.1 1.1-1.1h16.7c.8 0 1.4.6 1.1 1.4-.1.5-.5.7-1.1.7h-8.3zM12.9 16.6H7.3c-.7 0-1.2-.5-1.1-1.2.1-.5.5-.9 1.2-.9H18.5c.6 0 1.1.4 1.2.9.1.7-.4 1.2-1.1 1.2h-5.7z"/></g><path d="M17 32.5c.6.1 1.2.1 1.7.2 3.8.7 6.9 2.5 9.3 5.5 2 2.4 3.1 5.1 3.4 8.2.4 4.1-.7 7.8-3.2 11.1-2.6 3.3-6 5.3-10.1 5.8-6.1.7-11-1.4-14.6-6.3C1.8 54.8.9 52.3.7 49.5.1 44.1 2 39.5 6.2 36c2.4-2 5.1-3.1 8.2-3.4.2 0 .4 0 .6-.1h2zM21.7 49v-4h-4v-3c.1-1.1.6-1.5 1.6-1.6h2.5v-3.7c-1.4 0-2.7-.1-4 0-2.1.1-3.7 1.6-4.1 3.7-.2 1-.2 2-.2 3V45H10v4h3.5v10.4h4.2V49h4z" id="ynCUM6_2_"/><path d="M.5 92.8V67.1l.1-.1c.2-.7.5-1.3 1.1-1.8.4-.4 1-.6 1.5-.7h25.7l.1.1c.7.2 1.3.5 1.8 1.1.4.4.5 1 .7 1.5v25.7s0 .1-.1.1c-.1.7-.5 1.3-1.1 1.8-.4.4-1 .6-1.5.7H3.1l-.1-.1c-.7-.2-1.3-.5-1.8-1.1-.4-.4-.6-.9-.7-1.5zm17-2v-.4-7.5-.6c.1-1.4 1.6-2.4 2.9-1.9 1.1.3 1.7 1.2 1.7 2.4v8h4.6v-.2-8.7c0-.7-.1-1.3-.4-1.9-.9-2-2.4-3.2-4.5-3.4-1.5-.2-2.7.4-3.8 1.4-.2.2-.4.4-.6.7v-1.8h-4.6v13.9h4.7zM5.2 76.9v13.9h4.6V76.9H5.2zm2.2-2.6c1.5 0 2.8-1.2 2.8-2.8 0-1.5-1.2-2.8-2.8-2.8-1.5 0-2.8 1.2-2.8 2.8.1 1.5 1.3 2.7 2.8 2.8z"/><g id="NrVFf8_2_"><path d="M31.4 112c0 2.7.2 5.1-.1 7.5-.6 4.9-3.7 7.7-8.6 7.8-4.4.1-8.9.1-13.3 0-4.7-.1-7.9-3-8.5-7.7-.6-5.2-.6-10.5 0-15.7.5-4.4 3.5-7.1 8-7.3 4.7-.2 9.5-.2 14.2 0 5 .2 8 3.4 8.3 8.3.1 2.4 0 4.8 0 7.1.1 0-.1 0 0 0zm-27.7-.2c-.1 0 .1 0 0 0 .1 2.4.1 4.7.4 7.1.3 3 1.8 4.5 4.8 4.8 2.6.2 5.2.2 7.8.2 2.3 0 4.6 0 6.9-.2 2.7-.3 4.5-1.9 4.6-4.4.1-4.7.2-9.4 0-14.1-.1-3.3-1.9-5-5.1-5.1-4.6-.1-9.2-.1-13.8 0-3.3.1-5 1.9-5.2 5.3-.2 2-.4 4.2-.4 6.4z"/><path d="M23.6 112.2c0 4.3-3.3 7.7-7.5 7.8-4.1 0-7.6-3.4-7.6-7.6 0-4.4 3.3-7.8 7.5-7.9 4.2 0 7.6 3.4 7.6 7.7zm-7.5-4.4c-2.4 0-4.4 2-4.4 4.4s1.9 4.5 4.3 4.5 4.4-2 4.4-4.5c.1-2.4-1.9-4.4-4.3-4.4zM26 104.7c0 1-.8 1.8-1.8 1.8-.9 0-1.7-.8-1.7-1.8s.8-1.8 1.7-1.8c1.1-.1 1.9.7 1.8 1.8z"/></g><path class="st1" d="M16 128.5c8.6.1 15.5 6.9 15.5 15.5s-6.9 15.5-15.5 15.5S.5 152.6.5 144s6.9-15.5 15.5-15.5zM30.9 144c-.1-8.2-6.6-14.8-14.8-14.8S1.3 135.8 1.3 144s6.6 14.9 14.8 14.9c8.1-.1 14.7-6.6 14.8-14.9z"/><path class="st0" d="M30.9 144c-.1 8.3-6.6 14.8-14.8 14.8-8.3 0-14.9-6.6-14.8-14.9 0-8.2 6.6-14.8 14.8-14.8 8.1.1 14.7 6.7 14.8 14.9zm-10.6-13.1l-.1-.1c-2.2-.7-4.5-.9-6.8-.4-4.8 1-8.1 3.8-9.2 8.6-.3 1-.4 2.1-.2 3.1.1.7.5 1.2.9 1.7.3.3.4.7.4 1.1-.1.9-1 1.3-1.7.8-.5-.3-.7-.7-.9-1.2-.3-1-.3-2-.2-3.1.1-.6.2-1.3.4-1.9 0 .1-.1.2-.1.3-.2.9-.4 1.8-.5 2.8-.3 2.3.1 4.6 1 6.7 1.9 4.2 5.2 6.4 9.8 6.7 1 .1 2-.2 2.7-.9.2-.1.4-.3.6-.4.4-.2.8-.2 1.2.1.4.3.5.7.4 1.1-.1.3-.3.6-.5.8-.3.2-.7.4-1 .5-1.1.3-2.2.2-3.3 0-.5-.1-.9-.2-1.4-.3.7.3 1.5.5 2.3.6 2 .3 3.9.1 5.8-.4 2.8-.8 5.2-2.4 6.7-4.9 1-1.6 1.5-3.4 1.6-5.2.1-1.1-.2-2.1-.9-2.9-.1-.1-.2-.3-.3-.5-.3-.6-.3-1.2.2-1.6.5-.4 1.2-.3 1.6.2.3.3.5.6.6 1 .4 1 .3 2 .2 3-.1.6-.2 1.3-.4 1.9 0-.1 0-.2.1-.2.6-2.1.7-4.3.4-6.5-.3-1.9-1-3.8-2.2-5.4-1.6-2.2-3.9-3.5-6.6-4.1-1-.2-2-.4-3-.1-.6.1-1.2.5-1.7.9-.3.3-.7.5-1.1.4-.4 0-.8-.2-.9-.6-.2-.5-.1-.9.2-1.3.3-.4.8-.6 1.3-.8 1-.3 1.9-.2 2.9-.1.5.3 1.1.5 1.7.6z"/><path class="st1" d="M20.3 130.9c-.6-.1-1.2-.3-1.8-.4-1-.1-1.9-.2-2.9.1-.5.1-.9.4-1.3.8-.3.4-.4.8-.2 1.3.2.4.5.6.9.6s.8-.2 1.1-.4c.5-.4 1-.7 1.7-.9 1-.2 2-.1 3 .1 2.7.6 4.9 1.9 6.6 4.1 1.2 1.6 1.9 3.4 2.2 5.4.4 2.2.3 4.4-.4 6.5 0 .1 0 .2-.1.2.1-.6.3-1.3.4-1.9.1-1 .2-2.1-.2-3-.1-.4-.4-.7-.6-1-.4-.5-1.2-.6-1.6-.2-.4.4-.5 1-.2 1.6.1.2.2.3.3.5.7.8 1 1.8.9 2.9-.1 1.9-.6 3.6-1.6 5.2-1.5 2.6-3.9 4.1-6.7 4.9-1.9.6-3.9.6-5.8.4-.8-.1-1.6-.3-2.3-.6.5.1.9.2 1.4.3 1.1.2 2.2.3 3.3 0 .4-.1.7-.3 1-.5.2-.2.4-.5.5-.8.1-.4 0-.8-.4-1.1s-.8-.3-1.2-.1c-.2.1-.4.2-.6.4-.8.7-1.7 1-2.7.9-4.6-.3-7.9-2.5-9.8-6.7-1-2.1-1.3-4.4-1-6.7.1-.9.3-1.8.5-2.8 0-.1.1-.2.1-.3-.1.6-.3 1.2-.4 1.9-.2 1-.2 2.1.2 3.1.2.5.4.9.9 1.2.8.5 1.7.1 1.7-.8 0-.4-.2-.8-.4-1.1-.4-.5-.8-1.1-.9-1.7-.2-1.1-.1-2.1.1-3.1 1.2-4.9 4.4-7.6 9.2-8.6 2.3-.5 4.6-.3 6.8.4.2-.1.2-.1.3-.1zM19 142.4c-.1.1-.2.1-.3.2-2.1 1.2-3.1 3.4-2.6 5.8.5 2.6 2.6 4 5 3.7 2.1-.3 4.1-2.4 3.5-5-.4-1.7-1.6-2.6-3.3-2.4-1.7.2-2.6 2-1.9 3.5.2.5.6.8 1.1.9.3 0 .5 0 .7-.3s.1-.5 0-.7-.2-.3-.4-.4c-.4-.6-.2-1.3.5-1.5.6-.2 1.2.1 1.5.7.5 1.1.2 2.6-.7 3.3-1.3 1-3 .6-3.9-.9-.6-.9-.7-1.9-.5-3 .2-1.5 1-2.5 2.4-3.1.1-.1.3-.1.5-.1.5 0 1 0 1.6-.1.4-.1.6-.3.6-.6s-.1-.5-.5-.6c-.5-.2-1-.2-1.5-.1-.4.1-.5 0-.8-.3-.1-.2-.1-.4.1-.6.6-.5 1.2-1.1 1.8-1.7.5-.5.8-1.2.9-1.9.1-.9-.4-1.6-1.3-1.7-.7-.1-1.3.1-1.9.6-1.3 1.2-1.7 2.7-1.5 4.4 0 .2 0 .3-.2.4-.5.3-1 .7-1.5 1-.5.4-1.1.7-1.7 1.1.1-.6 0-1.2.5-1.6.3-.2.4-.5.6-.8l.3-.6c.1-.3 0-.5-.2-.7-.2-.1-.4-.1-.6-.1-.2.1-.5.2-.6.4-.3.4-.5.8-.7 1.3-.3.8-.9 1.2-1.6 1.4-.5.2-.8-.1-.9-.5.1 0 .2-.1.3-.1 1.7-.9 2.9-2.3 3.3-4.3.2-1.2-.5-2-1.7-1.8-.7.1-1.3.5-1.8 1-.6.6-1 1.3-1.2 2.1-.2.6-.3 1.3-.5 1.9-.3 0-.6-.2-.7-.7-.2-.6-.1-1.1.1-1.6.1-.2.1-.4-.1-.6-.2-.2-.4-.1-.6.1l-.3.3c-.1.3-.3.6-.3.9-.3 1.3.6 2.6 1.8 2.8.3 0 .4.1.4.4.3.9 1.3 1.5 2.2 1.2.4-.1.8-.3 1.2-.4 0 .3-.1.7-.5.8-.3.1-.5.3-.8.4-1.1.6-2.3 1.2-3.3 2.1-1 .9-1.7 2-1.6 3.4 0 1 .7 1.9 1.7 2.2 1.1.3 2.1 0 2.9-.6 1.1-.8 1.8-2 2.2-3.3.3-1.1.4-2.3.5-3.4 0-.2.1-.3.3-.5 1.1-.7 2.2-1.4 3.4-2.1.1-.1.2-.1.2-.1.2.2.3.4.4.5z"/><path class="st0" d="M19 142.4c-.1-.2-.2-.3-.4-.4-.1.1-.2.1-.2.1-1.1.7-2.2 1.4-3.4 2.1-.2.1-.3.2-.3.5-.1 1.1-.2 2.3-.5 3.4-.3 1.3-1 2.5-2.2 3.3-.9.6-1.9.9-2.9.6-1-.3-1.7-1.1-1.7-2.2-.1-1.4.6-2.5 1.6-3.4s2.1-1.5 3.3-2.1c.3-.1.5-.3.8-.4.4-.1.5-.5.5-.8-.4.1-.8.3-1.2.4-.9.2-1.8-.4-2.2-1.2-.1-.2-.2-.3-.4-.4-1.2-.2-2-1.5-1.8-2.8l.3-.9.3-.3c.2-.1.4-.2.6-.1.2.1.2.4.1.6-.1.5-.3 1.1-.1 1.6.1.4.4.6.7.7.1-.6.3-1.3.5-1.9.2-.8.6-1.5 1.2-2.1.5-.5 1-.9 1.8-1 1.2-.2 1.9.6 1.7 1.8-.4 2-1.6 3.3-3.3 4.3-.1.1-.2.1-.3.1.1.5.4.7.9.5.7-.3 1.4-.6 1.6-1.4.1-.4.4-.9.7-1.3.1-.2.4-.4.6-.4.2-.1.5 0 .7.1.2.1.3.4.2.7-.1.2-.1.4-.3.6-.2.3-.4.6-.6.8-.5.4-.4 1-.5 1.6.6-.4 1.2-.7 1.7-1.1.5-.3 1-.7 1.5-1 .1-.1.2-.2.2-.4-.1-1.7.2-3.2 1.5-4.4.5-.5 1.1-.7 1.9-.6.9.1 1.4.9 1.3 1.7s-.4 1.4-.9 1.9c-.6.6-1.2 1.1-1.8 1.7-.2.2-.2.3-.1.6.2.4.4.4.8.3.5-.1 1-.1 1.5.1.4.1.5.3.5.6s-.2.5-.6.6c-.5.1-1 0-1.6.1-.2 0-.4 0-.5.1-1.4.6-2.1 1.6-2.4 3.1-.2 1.1 0 2.1.5 3 .9 1.4 2.6 1.8 3.9.9 1-.8 1.3-2.3.7-3.3-.3-.6-.9-.9-1.5-.7-.7.2-1 .9-.5 1.5.1.2.2.3.4.4.2.2.2.5 0 .7s-.4.3-.7.3c-.5-.1-.9-.4-1.1-.9-.8-1.4.2-3.3 1.9-3.5 1.6-.2 2.9.7 3.3 2.4.6 2.5-1.3 4.7-3.5 5-2.4.3-4.5-1.2-5-3.7-.5-2.4.5-4.6 2.6-5.8 0-.2.1-.2.2-.3zm-5.7 2.8c-.1 0-.1 0-.2.1-1.1.6-2.2 1.3-3.1 2.2-.5.5-.9 1.1-1.1 1.8-.1.4-.1.9.2 1.3.3.3.7.3 1.1.2.9-.2 1.4-.8 1.8-1.5.8-1.3 1.1-2.7 1.3-4.1zm-1.9-4.7h.1c.9-.6 1.6-1.4 2.1-2.4.1-.3.2-.6.3-.8.1-.4-.3-.6-.6-.4-.2.1-.4.3-.5.5-.5.6-.9 1.4-1.1 2.2-.2.3-.3.6-.3.9zm8.1-.6c.8-.7 1.5-1.4 1.9-2.4 0-.1.1-.2.1-.4 0-.3-.2-.5-.5-.3-.3.1-.5.4-.7.6-.5.7-.7 1.5-.8 2.5z"/><path class="st1" d="M13.3 145.2c-.2 1.4-.5 2.8-1.2 4-.4.7-1 1.3-1.8 1.5-.4.1-.8.1-1.1-.2-.4-.4-.3-.8-.2-1.3.1-.7.6-1.3 1.1-1.8.9-.9 2-1.6 3.2-2.2-.1.1-.1.1 0 0zM11.4 140.5c.1-.3.1-.6.2-.9.2-.8.6-1.5 1.1-2.2.1-.2.3-.4.5-.5.4-.2.7 0 .6.4 0 .3-.1.6-.3.8-.5 1-1.2 1.8-2.1 2.4zM19.5 139.9c.1-1 .3-1.8.8-2.5.2-.2.4-.4.7-.6s.5 0 .5.3c0 .1 0 .3-.1.4-.4 1-1.1 1.6-1.9 2.4z"/><g id="XMLID_3_"><path id="XMLID_137_" class="st0" d="M17.2 186.5v-.7l-.3-.4-.4-.3h-.7v1.4h-.7v-2.1l-.3-.4-.4-.4h-.7V187.2l.3.4.4.3H15.8v.7l.4.4.3.3h.7v-1.4l.4-.3.4-.4v-.7h-.4z"/><path id="XMLID_136_" class="st0" d="M22.3 184.7l-.4-.3h-.7V187.9H19.8v-2.8l-.4-.4-.3-.3h-.7V188.6l.3.3.4.4h1.4l.3-.4.4-.3v.7H22.6V185.1z"/><path id="XMLID_135_" class="st0" d="M12.4 185.1l-.3-.4h-.4v-.3l-.3-.4-.4-.4h-.7v1.1H8.9v.4l.3.3.4.4.3.3h.4v2.5l.3.3.4.4H12.4l.4-.4.3-.3v-.7h-1.4V186.1H13.1v-.3l-.3-.4z"/><path id="XMLID_108_" class="st0" d="M31.4 170.7c.1 0 .1-.1.1-.1v-.2c0-.1-.1-.1-.1-.1h-.8v-.9H30.3c-.1 0-.1.1-.1.1v.9l-.9.9h-1.8v-1.8l.9-.9h.9c.1 0 .1-.1.1-.1v-.2c0-.1-.1-.1-.1-.1h-.8v-.9H28c-.1 0-.1.1-.1.1v.9l-.8.8-.9-.9-.9-.9.8-.8h.9c.1 0 .1-.1.1-.1v-.2c0-.1-.1-.1-.1-.1h-.8V164.9H25.9c-.1 0-.1.1-.1.1v.9l-.9.9H23V165l.9-.9h.9c.1 0 .1-.1.1-.1v-.2c0-.1-.1-.1-.1-.1H24v-.8c0-.1-.1-.1-.1-.1h-.2c-.1 0-.1.1-.1.1v.9l-.8.8-.8-.8v-.9c0-.1-.1-.1-.1-.1h-.2c-.1 0-.1.1-.1.1v.8H20v-.8c0-.1-.1-.1-.1-.1h-.2c-.1 0-.1.1-.1.1v.9l-.8.8-.8-.8v-.9c0-.1-.1-.1-.1-.1H17c-.1 0-.1.1-.1.1v.8h-.8-.1-.9v-.8c0-.1-.1-.1-.1-.1h-.2c-.1 0-.1.1-.1.1v.9l-.8.8-.8-.8v-.9c0-.1-.1-.1-.1-.1h-.2c-.1 0-.1.1-.1.1v.8h-1.6v-.8c0-.1-.1-.1-.1-.1h-.2c-.1 0-.1.1-.1.1v.9l-.8.8-.8-.8v-.9c0-.1-.1-.1-.1-.1h-.8c-.1 0-.1.1-.1.1v.8h-1V164c0 .1.1.1.1.1h.9l.9.9v1.8H7.3l-.9-.9v-.9c0-.1-.1-.1-.1-.1H6c-.1 0-.1.1-.1.1v.8h-1V166.1c0 .1.1.1.1.1h.9l.8.8-.9 1-.3.3-.5.6-.8-.8v-.9c0-.1-.1-.1-.1-.1h-.3c-.1 0-.1.1-.1.1v.8h-1V168.3c0 .1.1.1.1.1h.9l.9.9v1.8H2.8l-.8-.8v-.9c0-.1-.1-.1-.1-.1h-.3c-.1 0-.1.1-.1.1v.8h-1V170.5c0 .1.1.1.1.1h.9l.8.8-.8.8H.6c-.1 0-.1.1-.1.1v.2c0 .1.1.1.1.1h.8V174.3H.5V174.6c0 .1.1.1.1.1h.9l.8.8-.8.8H.6c-.1 0-.1.1-.1.1v.2c0 .1.1.1.1.1h.8v.9H1.7c.1 0 .1-.1.1-.1v-.9l.9-.9h1.8v1.8l-.8 1.5h-.9c-.1 0-.1.1-.1.1v.2c0 .1.1.1.1.1h.8v.9H4c.1 0 .1-.1.1-.1v-.9l.8-.8.9.9H6l.2-.2c.1-.1.1-.1 0-.2l-.9-.9v-1.8l1.9-1.9H11l2.6 2.6v5.1H9.1c-.1 0-.1.1-.1.1v.7c0 .1.1.1.1.1h13.8c.1 0 .1-.1.1-.1v-.7c0-.1-.1-.1-.1-.1h-4.5v-5.2l2.6-2.6h3.8l1.9 1.9v1.8l-.9.9v.2l.2.2h.2l.9-.9.8.8v.9c0 .1.1.1.1.1H28.3v-.9h.8c.1 0 .1-.1.1-.1v-.2c0-.1-.1-.1-.1-.1h-.9l-.9-.9v-1.8h1.8l.9.9v.9c0 .1.1.1.1.1H30.4v-.9h.8c.1 0 .1-.1.1-.1v-.2c0-.1-.1-.1-.1-.1h-.9l-.8-.8.8-.8h.9c.1 0 .1-.1.1-.1v-.2c0-.1-.1-.1-.1-.1h-.8V173h.8c.1 0 .1-.1.1-.1v-.2c0-.1-.1-.1-.1-.1h-.9l-.8-.8.8-.8 1.1-.3zM14.2 165l.9-.9H17l.9.9v1.8h-3.8c.1 0 .1-1.8.1-1.8zm-9.5 10.6H2.8l-.8-.9v-1.9l.9-.9h1.8l1.8 1.8-1.8 1.9zm6.2-2.5H7.3l-1.9-1.9v-1.8l.2-.2.7-.7.8-.8.2-.2h1.8l1.9 1.9-.1 3.7zm-1.1-6.2V165l.9-.9h1.8l.9.9v1.8l-1.8 1.8-1.8-1.7zm5.1 15.2h-.4v-4.2l.4.4v3.8zm2.2 0v-3.9l.4-.4v4.3h-.4zm2.7-8.9L16 177l-3.8-3.8v-3.8l1.9-1.9h3.8l1.9 1.9v3.8zm.6-4.5l-1.8-1.8V165l.9-.9h1.8l.9.9v1.9l-1.8 1.8zm.6 4.4v-3.7l1.9-1.9h1.8l.9.9.9.9v1.8l-1.9 1.9-3.6.1zm9-.3v1.9l-.9.9h-1.9l-1.8-1.8 1.8-1.8H29l1 .8z"/></g><circle class="st2" cx="15.9" cy="207.9" r="12.1"/><path class="st1" d="M3 206.5c.3.1.5.2.7.4s.3.5.3.8c0 .4-.1.7-.4 1s-.6.4-1 .4-.7-.1-1-.4-.4-.6-.4-1c0-.3.1-.6.3-.8s.4-.4.7-.4l.1.5c-.4.1-.6.3-.6.7 0 .2.1.4.2.6.2.1.4.2.6.2s.4-.1.6-.2c.2-.1.2-.3.2-.6 0-.4-.2-.6-.5-.7l.2-.5zM4.4 204.6c-.1.4-.3.7-.6.9s-.7.2-1 .1c-.4-.1-.7-.3-.8-.6-.2-.3-.2-.7-.1-1.1.1-.4.3-.7.6-.9s.7-.2 1-.1.7.3.8.6c.2.3.2.7.1 1.1zm-1.7-1.1c-.2.1-.3.3-.4.5s0 .4.1.6c.1.2.3.3.5.4s.5.1.6 0c.2-.1.3-.3.4-.5.1-.2 0-.4-.1-.6-.1-.2-.3-.3-.5-.4-.2-.1-.5-.1-.6 0zM5 202.6l-2.2-1.4.3-.4 2-.2-1.4-.9.3-.5 2.2 1.4-.2.4-2 .2 1.4.9-.4.5zM6.8 199.9L5 198l.4-.4 2 .4-1.1-1.2.4-.4 1.8 1.9-.4.3-2-.3 1.1 1.2-.4.4zM9.6 197.1l1.1-.6.3.4-1.6.9-1.4-2.3 1.5-.9.3.4-1 .6.3.5.9-.5.3.4-.9.5.2.6zM13.7 195.1c0 .3-.1.6-.2.8-.2.2-.4.4-.7.5-.4.1-.7.1-1.1-.1-.3-.2-.5-.5-.6-.8-.1-.4-.1-.7.1-1.1.2-.3.5-.5.8-.6s.6-.1.9 0 .5.3.6.6l-.5.3c-.2-.3-.5-.4-.8-.3-.2.1-.4.2-.5.4s-.1.4 0 .6c.1.2.2.4.4.5s.4.1.6.1c.4-.1.6-.4.6-.7l.4-.2zM16.5 193.2v.5h-.8l.1 2.1h-.6l-.1-2.1h-.8v-.5h2.2zM19.1 193.5l.6.2-.4 1.4c-.1.4 0 .7.4.8s.6-.1.7-.5l.4-1.4.6.2-.5 1.5c-.1.3-.3.6-.5.7s-.6.1-.9 0-.5-.3-.7-.5c-.1-.3-.2-.5-.1-.9l.4-1.5zM21.6 196.3l.5.2c-.1.4 0 .6.3.8.2.1.4.1.5 0 .1-.2 0-.3-.2-.5l-.2-.1c-.4-.4-.5-.7-.3-1.1.1-.2.3-.4.5-.4s.5 0 .7.2c.4.3.7.7.5 1.2l-.5-.2c.1-.3 0-.5-.2-.6s-.4-.1-.5 0 0 .3.2.5l.2.1c.4.3.5.7.3 1.1-.3.5-.9.4-1.3.2-.5-.4-.6-.8-.5-1.4zM28.5 200.2l.4.5-2.6.9-.3-.4 1-1.5-1.8.6-.3-.4 1.5-2.3.4.5-1 1.5 1.7-.6.3.4-1 1.5 1.7-.7zM26.9 202.8l2.4-1 .2.5-2.4 1-.2-.5zM30.5 205.5l-.5.1-.2-.8-2 .5-.1-.6 2-.5-.2-.8.5-.1.5 2.2zM30.6 208.4v.6H28v-.6h1.1v-1.1H28v-.6h2.6v.6h-1v1.1h1z"/><g><circle class="st2" cx="48" cy="208" r="12.1"/><path class="st3" d="M35.1 206.6c.3.1.5.2.7.4s.3.5.3.8c0 .4-.1.7-.4 1-.3.3-.6.4-1 .4s-.7-.1-1-.4c-.3-.3-.4-.6-.4-1 0-.3.1-.6.3-.8s.4-.4.7-.4l.1.5c-.4.1-.6.3-.6.7 0 .2.1.4.2.6.2.1.4.2.6.2.2 0 .4-.1.6-.2s.2-.3.2-.6c0-.4-.2-.6-.5-.7l.2-.5zM36.5 204.7c-.1.4-.3.7-.6.9s-.7.2-1 .1c-.4-.1-.7-.3-.8-.6-.2-.3-.2-.7-.1-1.1.1-.4.3-.7.6-.9s.7-.2 1-.1c.4.1.7.3.8.6.2.3.2.7.1 1.1zm-1.8-1.1c-.2.1-.3.3-.4.5s0 .4.1.6c.1.2.3.3.5.4.2.1.5.1.6 0 .2-.1.3-.3.4-.5.1-.2 0-.4-.1-.6-.1-.2-.3-.3-.5-.4-.2-.1-.4-.1-.6 0zM37.1 202.7l-2.2-1.4.3-.4 2-.2-1.4-.9.3-.5 2.2 1.4-.3.4-2 .2 1.4.9-.3.5zM38.9 200l-1.8-1.9.4-.4 2 .4-1.1-1.2.4-.4 1.8 1.9-.4.3-2-.3 1.1 1.2-.4.4zM41.6 197.2l1.1-.6.3.4-1.6.9-1.3-2.3 1.5-.9.3.4-1 .6.3.5.9-.5.3.4-.9.5.1.6zM45.8 195.2c0 .3-.1.6-.2.8s-.4.4-.7.5c-.4.1-.7.1-1.1-.1-.3-.2-.5-.5-.6-.8-.1-.4-.1-.7.1-1.1s.5-.5.8-.6.6-.1.9 0 .5.3.6.6l-.5.3c-.2-.3-.5-.4-.8-.3-.2.1-.4.2-.5.4s-.1.4 0 .6c.1.2.2.4.4.5s.4.1.6.1c.4-.1.6-.4.5-.7l.5-.2zM48.6 193.3v.5h-.8l.1 2.1h-.6l-.1-2.1h-.8v-.5h2.2zM51.2 193.6l.6.2-.4 1.4c-.1.4 0 .7.4.8s.6-.1.7-.5l.4-1.4.6.2-.5 1.5c-.1.3-.3.6-.5.7-.3.1-.6.1-.9 0s-.5-.3-.7-.5c-.1-.3-.2-.5-.1-.9l.4-1.5zM53.7 196.4l.5.2c-.1.4 0 .6.3.8.2.1.4.1.5 0 .1-.2 0-.3-.2-.5l-.2-.1c-.4-.4-.5-.7-.3-1.1.1-.2.3-.4.5-.4s.5 0 .7.2c.4.3.7.7.5 1.2l-.5-.2c.1-.3 0-.5-.2-.6s-.4-.1-.5 0 0 .3.2.5l.2.1c.4.3.5.7.3 1.1-.3.5-.9.4-1.3.2-.5-.4-.6-.8-.5-1.4zM60.6 200.3l.4.5-2.6.9-.3-.4 1-1.5-1.8.6-.3-.4 1.5-2.3.4.5-1 1.5 1.7-.6.3.4-1 1.5 1.7-.7zM59 202.9l2.4-1 .2.5-2.4 1-.2-.5zM62.6 205.6l-.5.1-.2-.8-2 .5-.1-.6 2-.5-.2-.8.5-.1.5 2.2zM62.7 208.5v.6h-2.6v-.6h1.1v-1.1h-1.1v-.6h2.6v.6h-1v1.1h1z"/></g><path class="st2" d="M48 221.4H15.2"/><path d="M22.5 224.5c-5 0-9 4-9 9v13c0 2.2-1.8 4-4 4s-4-1.8-4-4 1.8-4 4-4c.3 0 .5-.2.5-.5v-4c0-.3-.2-.5-.5-.5-5 0-9 4-9 9s4 9 9 9 9-4 9-9v-4h4c5 0 9-4 9-9s-4-9-9-9m0 13h-4v-4c0-2.2 1.8-4 4-4s4 1.8 4 4c-.1 2.2-1.8 4-4 4"/><g id="Group_110_1_"><g id="Group_108"><path id="Path_207" class="st1" d="M48 63.5c-8.6 0-15.5-6.9-15.5-15.5S39.4 32.5 48 32.5 63.5 39.4 63.5 48 56.6 63.5 48 63.5z"/></g><g id="Group_109_1_" transform="translate(23.396 14.878)"><path id="Path_208_1_" d="M22.5 33.2V41c0 .1.1.2.2.2h2.9c.1 0 .2-.1.2-.2v-7.9h2.1c.1 0 .2-.1.2-.2l.2-2.4c0-.1-.1-.2-.2-.2h-2.3v-1.7c0-.4.3-.7.7-.7h1.6c.1 0 .2-.1.2-.2v-2.4c0-.1-.1-.2-.2-.2h-2.7c-1.6 0-2.9 1.3-2.9 2.9v2.3h-1.4c-.1 0-.2.1-.2.2v2.4c0 .1.1.2.2.2h1.4v.1z" fill-rule="evenodd" clip-rule="evenodd" fill="#19181b"/></g></g><g><g id="Group_118" transform="translate(226.687 .052)"><path id="Path_212" class="st1" d="M-178.7 95.4c-8.6 0-15.5-6.9-15.5-15.5s6.9-15.5 15.5-15.5 15.5 6.9 15.5 15.5-6.9 15.5-15.5 15.5z"/></g><g id="Group_122_1_" transform="translate(245.788 17.408)"><g id="Group_120_1_" transform="translate(.36 7.602)"><g id="Group_119_1_"><path id="Path_213_1_" class="st0" d="M-191.1 55.8v4.6c0 .1-.1.2-.2.2h-2.4c-.1 0-.2-.1-.2-.2v-4.2c0-1.1-.4-1.9-1.4-1.9-.6 0-1.2.4-1.4 1-.1.2-.1.4-.1.7v4.4c0 .1-.1.2-.2.2h-2.4c-.1 0-.2-.1-.2-.2v-7.9c0-.1.1-.2.2-.2h2.4c.1 0 .2.1.2.2v1c.5-.9 1.5-1.4 2.5-1.4 1.8 0 3.2 1.1 3.2 3.7zm-12.5 4.8h2.4c.1 0 .2-.1.2-.2v-7.9c0-.1-.1-.2-.2-.2h-2.4c-.1 0-.2.1-.2.2v7.9c-.1.1 0 .2.2.2z"/></g></g><g id="Group_121_1_"><circle id="Ellipse_2_1_" class="st0" cx="-202.2" cy="57.3" r="1.5"/></g></g></g><g><g id="Group_112" transform="translate(115.386 .773)"><circle id="Ellipse_1" class="st1" cx="-67.4" cy="111.1" r="13.6"/><g id="Group_111"><path id="Path_209" class="st1" d="M-67.4 126.7c-8.6 0-15.5-6.9-15.5-15.5s6.9-15.5 15.5-15.5 15.5 6.9 15.5 15.5-6.9 15.5-15.5 15.5z"/></g></g><g id="_9tQU1T" transform="translate(368.59 299.766)"><g id="Group_125"><path id="Path_214" d="M-314-187.4v2.7c-.1 2.2-1.2 3.5-3.3 3.7-2.1.2-4.2.2-6.3 0-2.1-.2-3.2-1.2-3.3-3.3-.2-2.1-.2-4.1 0-6.2.2-2.1 1.2-3.2 3.3-3.3 2.1-.2 4.2-.2 6.3 0 2.2.2 3.3 1.6 3.4 3.8-.1.9-.1 1.8-.1 2.6zm-1.2.1v-2.7c-.1-1.6-.8-2.5-2.3-2.6-2-.1-4.1-.1-6.2 0-1.4.1-2.1.8-2.2 2.2-.1 2-.1 4.1 0 6.1.1 1.4.8 2.2 2.3 2.2 2 .1 4 .1 6.1 0 1.5-.1 2.2-.9 2.3-2.3.1-1 0-1.9 0-2.9z"/><path id="Path_215" d="M-317.2-187.3c0 1.9-1.5 3.3-3.4 3.3s-3.3-1.5-3.3-3.4c0-1.8 1.5-3.3 3.4-3.3 1.8 0 3.3 1.5 3.3 3.4 0-.1 0-.1 0 0zm-1.1 0c0-1.2-1-2.2-2.2-2.2-1.2 0-2.2 1-2.2 2.2 0 1.2 1 2.2 2.2 2.2 1.1 0 2.1-1 2.2-2.2z"/><path id="Path_216" d="M-316.3-190.9c0 .4-.3.7-.7.8-.4 0-.8-.3-.8-.8 0-.4.3-.7.8-.8.4.1.7.4.7.8z"/></g></g></g></svg>